<?xml version="1.0" encoding="UTF-8" standalone="no"?>
<!DOCTYPE svg PUBLIC "-//W3C//DTD SVG 1.1//EN"
 "http://www.w3.org/Graphics/SVG/1.1/DTD/svg11.dtd">
<!-- Generated by graphviz version 15.1.0 (20260618.0150)
 -->
<!-- Pages: 1 -->
<svg width="1257pt" height="415pt"
 viewBox="0.00 0.00 1257.00 415.00" xmlns="http://www.w3.org/2000/svg" xmlns:xlink="http://www.w3.org/1999/xlink">
<g id="graph0" class="graph" transform="scale(1 1) rotate(0) translate(4 410.56)">
<polygon fill="white" stroke="none" points="-4,4 -4,-410.56 1252.57,-410.56 1252.57,4 -4,4"/>
<!-- ChiSquared -->
<g id="node1" class="node">
<title>ChiSquared</title>
<g id="a_node1"><a xlink:href="../chi_squared.html" xlink:title="ChiSquared" target="_top">
<polygon fill="none" stroke="white" points="75.57,-129.96 0,-129.96 0,-110.64 75.57,-110.64 75.57,-129.96"/>
<text xml:space="preserve" text-anchor="middle" x="37.78" y="-114.5" font-family="Sans-Serif" font-size="14.00">ChiSquared</text>
</a>
</g>
</g>
<!-- MatrixLayouts -->
<g id="node2" class="node">
<title>MatrixLayouts</title>
<g id="a_node2"><a xlink:href="../matrix_layouts.html" xlink:title="MatrixLayouts" target="_top">
<polygon fill="none" stroke="white" points="332.32,-185.28 243.25,-185.28 243.25,-165.96 332.32,-165.96 332.32,-185.28"/>
<text xml:space="preserve" text-anchor="middle" x="287.78" y="-169.82" font-family="Sans-Serif" font-size="14.00">MatrixLayouts</text>
</a>
</g>
</g>
<!-- MatrixLayouts&#45;&gt;ChiSquared -->
<g id="edge1" class="edge">
<title>MatrixLayouts&#45;&gt;ChiSquared</title>
<path fill="none" stroke="black" d="M245.09,-165.51C201.25,-156.16 133.1,-141.63 87.01,-131.8"/>
<polygon fill="black" stroke="black" points="87.79,-128.39 77.28,-129.72 86.33,-135.23 87.79,-128.39"/>
</g>
<!-- MatrixFormats -->
<g id="node7" class="node">
<title>MatrixFormats</title>
<g id="a_node7"><a xlink:href="../matrix_formats.html" xlink:title="MatrixFormats" target="_top">
<polygon fill="none" stroke="white" points="333.82,-129.96 241.75,-129.96 241.75,-110.64 333.82,-110.64 333.82,-129.96"/>
<text xml:space="preserve" text-anchor="middle" x="287.78" y="-114.5" font-family="Sans-Serif" font-size="14.00">MatrixFormats</text>
</a>
</g>
</g>
<!-- MatrixLayouts&#45;&gt;MatrixFormats -->
<g id="edge10" class="edge">
<title>MatrixLayouts&#45;&gt;MatrixFormats</title>
<path fill="none" stroke="black" d="M287.78,-165.82C287.78,-159.22 287.78,-149.92 287.78,-141.53"/>
<polygon fill="black" stroke="black" points="291.29,-141.81 287.79,-131.81 284.29,-141.81 291.29,-141.81"/>
</g>
<!-- GroupedCorrelations -->
<g id="node13" class="node">
<title>GroupedCorrelations</title>
<g id="a_node13"><a xlink:href="../grouped_correlations.html" xlink:title="GroupedCorrelations" target="_top">
<polygon fill="none" stroke="white" points="223.94,-129.96 93.62,-129.96 93.62,-110.64 223.94,-110.64 223.94,-129.96"/>
<text xml:space="preserve" text-anchor="middle" x="158.78" y="-114.5" font-family="Sans-Serif" font-size="14.00">GroupedCorrelations</text>
</a>
</g>
</g>
<!-- MatrixLayouts&#45;&gt;GroupedCorrelations -->
<g id="edge7" class="edge">
<title>MatrixLayouts&#45;&gt;GroupedCorrelations</title>
<path fill="none" stroke="black" d="M265.9,-165.57C245.42,-157.11 214.57,-144.36 191.23,-134.71"/>
<polygon fill="black" stroke="black" points="192.75,-131.55 182.17,-130.97 190.08,-138.02 192.75,-131.55"/>
</g>
<!-- ParallelDistances -->
<g id="node20" class="node">
<title>ParallelDistances</title>
<g id="a_node20"><a xlink:href="../parallel_distances.html" xlink:title="ParallelDistances" target="_top">
<polygon fill="none" stroke="white" points="460.07,-129.96 351.5,-129.96 351.5,-110.64 460.07,-110.64 460.07,-129.96"/>
<text xml:space="preserve" text-anchor="middle" x="405.78" y="-114.5" font-family="Sans-Serif" font-size="14.00">ParallelDistances</text>
</a>
</g>
</g>
<!-- MatrixLayouts&#45;&gt;ParallelDistances -->
<g id="edge13" class="edge">
<title>MatrixLayouts&#45;&gt;ParallelDistances</title>
<path fill="none" stroke="black" d="M307.8,-165.57C326.28,-157.23 353.99,-144.7 375.23,-135.1"/>
<polygon fill="black" stroke="black" points="376.62,-138.32 384.29,-131.01 373.74,-131.94 376.62,-138.32"/>
</g>
<!-- ExtendedReadWriteLocks -->
<g id="node3" class="node">
<title>ExtendedReadWriteLocks</title>
<g id="a_node3"><a xlink:href="../extended_read_write_locks.html" xlink:title="ExtendedReadWriteLocks" target="_top">
<polygon fill="none" stroke="white" points="721.94,-240.6 561.62,-240.6 561.62,-221.28 721.94,-221.28 721.94,-240.6"/>
<text xml:space="preserve" text-anchor="middle" x="641.78" y="-225.14" font-family="Sans-Serif" font-size="14.00">ExtendedReadWriteLocks</text>
</a>
</g>
</g>
<!-- MostlyReadWriteLocks -->
<g id="node4" class="node">
<title>MostlyReadWriteLocks</title>
<g id="a_node4"><a xlink:href="../mostly_read_write_locks.html" xlink:title="MostlyReadWriteLocks" target="_top">
<polygon fill="none" stroke="white" points="709.32,-295.92 566.25,-295.92 566.25,-276.6 709.32,-276.6 709.32,-295.92"/>
<text xml:space="preserve" text-anchor="middle" x="637.78" y="-280.46" font-family="Sans-Serif" font-size="14.00">MostlyReadWriteLocks</text>
</a>
</g>
</g>
<!-- MostlyReadWriteLocks&#45;&gt;ExtendedReadWriteLocks -->
<g id="edge2" class="edge">
<title>MostlyReadWriteLocks&#45;&gt;ExtendedReadWriteLocks</title>
<path fill="none" stroke="black" d="M638.45,-276.46C638.94,-269.86 639.64,-260.56 640.27,-252.17"/>
<polygon fill="black" stroke="black" points="643.74,-252.68 641,-242.45 636.76,-252.16 643.74,-252.68"/>
</g>
<!-- CachedIsPath -->
<g id="node10" class="node">
<title>CachedIsPath</title>
<g id="a_node10"><a xlink:href="../cached_ispath.html" xlink:title="CachedIsPath" target="_top">
<polygon fill="none" stroke="white" points="829.32,-240.6 740.25,-240.6 740.25,-221.28 829.32,-221.28 829.32,-240.6"/>
<text xml:space="preserve" text-anchor="middle" x="784.78" y="-225.14" font-family="Sans-Serif" font-size="14.00">CachedIsPath</text>
</a>
</g>
</g>
<!-- MostlyReadWriteLocks&#45;&gt;CachedIsPath -->
<g id="edge6" class="edge">
<title>MostlyReadWriteLocks&#45;&gt;CachedIsPath</title>
<path fill="none" stroke="black" d="M662.72,-276.21C686.48,-267.6 722.49,-254.54 749.25,-244.83"/>
<polygon fill="black" stroke="black" points="750.1,-248.25 758.3,-241.55 747.71,-241.67 750.1,-248.25"/>
</g>
<!-- SparseStatistics -->
<g id="node5" class="node">
<title>SparseStatistics</title>
<g id="a_node5"><a xlink:href="../sparse_statistics.html" xlink:title="SparseStatistics" target="_top">
<polygon fill="none" stroke="white" points="596.32,-74.64 495.25,-74.64 495.25,-55.32 596.32,-55.32 596.32,-74.64"/>
<text xml:space="preserve" text-anchor="middle" x="545.78" y="-59.18" font-family="Sans-Serif" font-size="14.00">SparseStatistics</text>
</a>
</g>
</g>
<!-- Downsample -->
<g id="node27" class="node">
<title>Downsample</title>
<g id="a_node27"><a xlink:href="../downsample.html" xlink:title="Downsample" target="_top">
<polygon fill="none" stroke="white" points="587.32,-19.32 504.25,-19.32 504.25,0 587.32,0 587.32,-19.32"/>
<text xml:space="preserve" text-anchor="middle" x="545.78" y="-3.86" font-family="Sans-Serif" font-size="14.00">Downsample</text>
</a>
</g>
</g>
<!-- SparseStatistics&#45;&gt;Downsample -->
<g id="edge25" class="edge">
<title>SparseStatistics&#45;&gt;Downsample</title>
<path fill="none" stroke="black" d="M545.78,-55.18C545.78,-48.58 545.78,-39.28 545.78,-30.89"/>
<polygon fill="black" stroke="black" points="549.29,-31.17 545.79,-21.17 542.29,-31.17 549.29,-31.17"/>
</g>
<!-- ParallelLoops -->
<g id="node6" class="node">
<title>ParallelLoops</title>
<g id="a_node6"><a xlink:href="../parallel_loops.html" xlink:title="ParallelLoops" target="_top">
<polygon fill="none" stroke="white" points="576.82,-185.28 490.75,-185.28 490.75,-165.96 576.82,-165.96 576.82,-185.28"/>
<text xml:space="preserve" text-anchor="middle" x="533.78" y="-169.82" font-family="Sans-Serif" font-size="14.00">ParallelLoops</text>
</a>
</g>
</g>
<!-- ParallelLoops&#45;&gt;SparseStatistics -->
<g id="edge3" class="edge">
<title>ParallelLoops&#45;&gt;SparseStatistics</title>
<path fill="none" stroke="black" d="M546.4,-165.62C556.49,-157.58 569.9,-144.8 575.78,-129.96 582.12,-113.96 572.51,-96.29 562.53,-83.58"/>
<polygon fill="black" stroke="black" points="565.24,-81.37 556.06,-76.08 559.94,-85.94 565.24,-81.37"/>
</g>
<!-- ParallelLoops&#45;&gt;ParallelDistances -->
<g id="edge12" class="edge">
<title>ParallelLoops&#45;&gt;ParallelDistances</title>
<path fill="none" stroke="black" d="M512.07,-165.57C491.75,-157.11 461.14,-144.36 437.98,-134.71"/>
<polygon fill="black" stroke="black" points="439.58,-131.59 429,-130.97 436.89,-138.05 439.58,-131.59"/>
</g>
<!-- KMeans -->
<g id="node21" class="node">
<title>KMeans</title>
<g id="a_node21"><a xlink:href="../kmeans.html" xlink:title="KMeans" target="_top">
<polygon fill="none" stroke="white" points="423.07,-74.64 368.5,-74.64 368.5,-55.32 423.07,-55.32 423.07,-74.64"/>
<text xml:space="preserve" text-anchor="middle" x="395.78" y="-59.18" font-family="Sans-Serif" font-size="14.00">KMeans</text>
</a>
</g>
</g>
<!-- ParallelLoops&#45;&gt;KMeans -->
<g id="edge14" class="edge">
<title>ParallelLoops&#45;&gt;KMeans</title>
<path fill="none" stroke="black" d="M538.65,-165.78C545.26,-152.46 554.94,-127.04 542.78,-110.64 529.84,-93.17 473.77,-79.84 434.75,-72.46"/>
<polygon fill="black" stroke="black" points="435.46,-69.03 424.99,-70.68 434.2,-75.92 435.46,-69.03"/>
</g>
<!-- Permute -->
<g id="node25" class="node">
<title>Permute</title>
<g id="a_node25"><a xlink:href="../permute.html" xlink:title="Permute" target="_top">
<polygon fill="none" stroke="white" points="533.82,-129.96 477.75,-129.96 477.75,-110.64 533.82,-110.64 533.82,-129.96"/>
<text xml:space="preserve" text-anchor="middle" x="505.78" y="-114.5" font-family="Sans-Serif" font-size="14.00">Permute</text>
</a>
</g>
</g>
<!-- ParallelLoops&#45;&gt;Permute -->
<g id="edge17" class="edge">
<title>ParallelLoops&#45;&gt;Permute</title>
<path fill="none" stroke="black" d="M529.16,-165.82C525.54,-158.91 520.36,-149.05 515.79,-140.36"/>
<polygon fill="black" stroke="black" points="518.96,-138.86 511.21,-131.64 512.76,-142.12 518.96,-138.86"/>
</g>
<!-- MatrixFormats&#45;&gt;SparseStatistics -->
<g id="edge4" class="edge">
<title>MatrixFormats&#45;&gt;SparseStatistics</title>
<path fill="none" stroke="black" d="M331.84,-110.19C375.68,-101.14 443.07,-87.21 490.48,-77.41"/>
<polygon fill="black" stroke="black" points="490.91,-80.9 499.99,-75.44 489.49,-74.04 490.91,-80.9"/>
</g>
<!-- MatrixFormats&#45;&gt;KMeans -->
<g id="edge15" class="edge">
<title>MatrixFormats&#45;&gt;KMeans</title>
<path fill="none" stroke="black" d="M306.11,-110.25C322.86,-101.98 347.92,-89.61 367.29,-80.05"/>
<polygon fill="black" stroke="black" points="368.6,-83.3 376.02,-75.74 365.5,-77.03 368.6,-83.3"/>
</g>
<!-- OldLinuxMmap -->
<g id="node8" class="node">
<title>OldLinuxMmap</title>
<g id="a_node8"><a xlink:href="../old_linux_mmap.html" xlink:title="OldLinuxMmap" target="_top">
<polygon fill="none" stroke="white" points="798.44,-406.56 701.12,-406.56 701.12,-387.24 798.44,-387.24 798.44,-406.56"/>
<text xml:space="preserve" text-anchor="middle" x="749.78" y="-391.1" font-family="Sans-Serif" font-size="14.00">OldLinuxMmap</text>
</a>
</g>
</g>
<!-- FlameTime -->
<g id="node9" class="node">
<title>FlameTime</title>
<g id="a_node9"><a xlink:href="../flame_time.html" xlink:title="FlameTime" target="_top">
<polygon fill="none" stroke="white" points="620.44,-351.24 547.12,-351.24 547.12,-331.92 620.44,-331.92 620.44,-351.24"/>
<text xml:space="preserve" text-anchor="middle" x="583.78" y="-335.78" font-family="Sans-Serif" font-size="14.00">FlameTime</text>
</a>
</g>
</g>
<!-- FlameTime&#45;&gt;MostlyReadWriteLocks -->
<g id="edge5" class="edge">
<title>FlameTime&#45;&gt;MostlyReadWriteLocks</title>
<path fill="none" stroke="black" d="M592.7,-331.78C600.24,-324.33 611.25,-313.46 620.51,-304.32"/>
<polygon fill="black" stroke="black" points="622.94,-306.84 627.6,-297.32 618.02,-301.86 622.94,-306.84"/>
</g>
<!-- FlameTime&#45;&gt;ParallelLoops -->
<g id="edge11" class="edge">
<title>FlameTime&#45;&gt;ParallelLoops</title>
<path fill="none" stroke="black" d="M576.97,-331.5C570.77,-322.81 561.86,-309.11 556.78,-295.92 543.95,-262.54 538.03,-221.05 535.49,-196.83"/>
<polygon fill="black" stroke="black" points="539,-196.73 534.57,-187.1 532.03,-197.39 539,-196.73"/>
</g>
<!-- ZeroCorrelation -->
<g id="node14" class="node">
<title>ZeroCorrelation</title>
<g id="a_node14"><a xlink:href="../zero_correlation.html" xlink:title="ZeroCorrelation" target="_top">
<polygon fill="none" stroke="white" points="825.82,-295.92 727.75,-295.92 727.75,-276.6 825.82,-276.6 825.82,-295.92"/>
<text xml:space="preserve" text-anchor="middle" x="776.78" y="-280.46" font-family="Sans-Serif" font-size="14.00">ZeroCorrelation</text>
</a>
</g>
</g>
<!-- FlameTime&#45;&gt;ZeroCorrelation -->
<g id="edge8" class="edge">
<title>FlameTime&#45;&gt;ZeroCorrelation</title>
<path fill="none" stroke="black" d="M616.52,-331.53C648.55,-322.69 697.53,-309.16 732.91,-299.38"/>
<polygon fill="black" stroke="black" points="733.72,-302.79 742.43,-296.75 731.85,-296.04 733.72,-302.79"/>
</g>
<!-- Logger -->
<g id="node22" class="node">
<title>Logger</title>
<g id="a_node22"><a xlink:href="../logger.html" xlink:title="Logger" target="_top">
<polygon fill="none" stroke="white" points="493.94,-295.92 447.62,-295.92 447.62,-276.6 493.94,-276.6 493.94,-295.92"/>
<text xml:space="preserve" text-anchor="middle" x="470.78" y="-280.46" font-family="Sans-Serif" font-size="14.00">Logger</text>
</a>
</g>
</g>
<!-- FlameTime&#45;&gt;Logger -->
<g id="edge16" class="edge">
<title>FlameTime&#45;&gt;Logger</title>
<path fill="none" stroke="black" d="M564.62,-331.53C547,-323.22 520.63,-310.78 500.32,-301.2"/>
<polygon fill="black" stroke="black" points="501.95,-298.1 491.42,-297 498.97,-304.43 501.95,-298.1"/>
</g>
<!-- ReadOnlyArrays -->
<g id="node11" class="node">
<title>ReadOnlyArrays</title>
<g id="a_node11"><a xlink:href="../read_only_arrays.html" xlink:title="ReadOnlyArrays" target="_top">
<polygon fill="none" stroke="white" points="292.82,-240.6 188.75,-240.6 188.75,-221.28 292.82,-221.28 292.82,-240.6"/>
<text xml:space="preserve" text-anchor="middle" x="240.78" y="-225.14" font-family="Sans-Serif" font-size="14.00">ReadOnlyArrays</text>
</a>
</g>
</g>
<!-- ReadOnlyArrays&#45;&gt;MatrixLayouts -->
<g id="edge22" class="edge">
<title>ReadOnlyArrays&#45;&gt;MatrixLayouts</title>
<path fill="none" stroke="black" d="M248.55,-221.14C254.97,-213.85 264.3,-203.26 272.25,-194.24"/>
<polygon fill="black" stroke="black" points="274.87,-196.57 278.85,-186.75 269.62,-191.94 274.87,-196.57"/>
</g>
<!-- UniqueNames -->
<g id="node12" class="node">
<title>UniqueNames</title>
<g id="a_node12"><a xlink:href="../unique_names.html" xlink:title="UniqueNames" target="_top">
<polygon fill="none" stroke="white" points="907.07,-406.56 816.5,-406.56 816.5,-387.24 907.07,-387.24 907.07,-406.56"/>
<text xml:space="preserve" text-anchor="middle" x="861.78" y="-391.1" font-family="Sans-Serif" font-size="14.00">UniqueNames</text>
</a>
</g>
</g>
<!-- GlobalWeakCache -->
<g id="node15" class="node">
<title>GlobalWeakCache</title>
<g id="a_node15"><a xlink:href="../global_weak_cache.html" xlink:title="GlobalWeakCache" target="_top">
<polygon fill="none" stroke="white" points="1042.57,-406.56 925,-406.56 925,-387.24 1042.57,-387.24 1042.57,-406.56"/>
<text xml:space="preserve" text-anchor="middle" x="983.78" y="-391.1" font-family="Sans-Serif" font-size="14.00">GlobalWeakCache</text>
</a>
</g>
</g>
<!-- BitsLoops -->
<g id="node16" class="node">
<title>BitsLoops</title>
<g id="a_node16"><a xlink:href="../bits_loops.html" xlink:title="BitsLoops" target="_top">
<polygon fill="none" stroke="white" points="1124.57,-406.56 1061,-406.56 1061,-387.24 1124.57,-387.24 1124.57,-406.56"/>
<text xml:space="preserve" text-anchor="middle" x="1092.78" y="-391.1" font-family="Sans-Serif" font-size="14.00">BitsLoops</text>
</a>
</g>
</g>
<!-- ParallelStorage -->
<g id="node17" class="node">
<title>ParallelStorage</title>
<g id="a_node17"><a xlink:href="../parallel_storage.html" xlink:title="ParallelStorage" target="_top">
<polygon fill="none" stroke="white" points="735.07,-351.24 638.5,-351.24 638.5,-331.92 735.07,-331.92 735.07,-351.24"/>
<text xml:space="preserve" text-anchor="middle" x="686.78" y="-335.78" font-family="Sans-Serif" font-size="14.00">ParallelStorage</text>
</a>
</g>
</g>
<!-- Types -->
<g id="node18" class="node">
<title>Types</title>
<g id="a_node18"><a xlink:href="../types.html" xlink:title="Types" target="_top">
<polygon fill="none" stroke="white" points="683.32,-406.56 642.25,-406.56 642.25,-387.24 683.32,-387.24 683.32,-406.56"/>
<text xml:space="preserve" text-anchor="middle" x="662.78" y="-391.1" font-family="Sans-Serif" font-size="14.00">Types</text>
</a>
</g>
</g>
<!-- Types&#45;&gt;FlameTime -->
<g id="edge21" class="edge">
<title>Types&#45;&gt;FlameTime</title>
<path fill="none" stroke="black" d="M649.38,-386.85C637.69,-378.97 620.48,-367.35 606.62,-358"/>
<polygon fill="black" stroke="black" points="608.75,-355.21 598.51,-352.52 604.84,-361.01 608.75,-355.21"/>
</g>
<!-- Types&#45;&gt;ParallelStorage -->
<g id="edge9" class="edge">
<title>Types&#45;&gt;ParallelStorage</title>
<path fill="none" stroke="black" d="M666.75,-387.1C669.82,-380.27 674.2,-370.55 678.07,-361.93"/>
<polygon fill="black" stroke="black" points="681.2,-363.51 682.11,-352.96 674.82,-360.64 681.2,-363.51"/>
</g>
<!-- CrossValidations -->
<g id="node19" class="node">
<title>CrossValidations</title>
<g id="a_node19"><a xlink:href="../cross_validations.html" xlink:title="CrossValidations" target="_top">
<polygon fill="none" stroke="white" points="1248.57,-406.56 1143,-406.56 1143,-387.24 1248.57,-387.24 1248.57,-406.56"/>
<text xml:space="preserve" text-anchor="middle" x="1195.78" y="-391.1" font-family="Sans-Serif" font-size="14.00">CrossValidations</text>
</a>
</g>
</g>
<!-- Documentation -->
<g id="node26" class="node">
<title>Documentation</title>
<g id="a_node26"><a xlink:href="../documentation.html" xlink:title="Documentation" target="_top">
<polygon fill="none" stroke="white" points="505.69,-240.6 409.88,-240.6 409.88,-221.28 505.69,-221.28 505.69,-240.6"/>
<text xml:space="preserve" text-anchor="middle" x="457.78" y="-225.14" font-family="Sans-Serif" font-size="14.00">Documentation</text>
</a>
</g>
</g>
<!-- Logger&#45;&gt;Documentation -->
<g id="edge19" class="edge">
<title>Logger&#45;&gt;Documentation</title>
<path fill="none" stroke="black" d="M468.64,-276.46C467.01,-269.78 464.71,-260.34 462.64,-251.87"/>
<polygon fill="black" stroke="black" points="466.11,-251.29 460.34,-242.41 459.31,-252.95 466.11,-251.29"/>
</g>
<!-- Brief -->
<g id="node23" class="node">
<title>Brief</title>
<g id="a_node23"><a xlink:href="../brief.html" xlink:title="Brief" target="_top">
<polygon fill="none" stroke="white" points="599.82,-406.56 567.75,-406.56 567.75,-387.24 599.82,-387.24 599.82,-406.56"/>
<text xml:space="preserve" text-anchor="middle" x="583.78" y="-391.1" font-family="Sans-Serif" font-size="14.00">Brief</text>
</a>
</g>
</g>
<!-- Brief&#45;&gt;FlameTime -->
<g id="edge20" class="edge">
<title>Brief&#45;&gt;FlameTime</title>
<path fill="none" stroke="black" d="M583.78,-387.1C583.78,-380.5 583.78,-371.2 583.78,-362.81"/>
<polygon fill="black" stroke="black" points="587.29,-363.09 583.79,-353.09 580.29,-363.09 587.29,-363.09"/>
</g>
<!-- Handlers -->
<g id="node24" class="node">
<title>Handlers</title>
<g id="a_node24"><a xlink:href="../handlers.html" xlink:title="Handlers" target="_top">
<polygon fill="none" stroke="white" points="368.94,-240.6 310.62,-240.6 310.62,-221.28 368.94,-221.28 368.94,-240.6"/>
<text xml:space="preserve" text-anchor="middle" x="339.78" y="-225.14" font-family="Sans-Serif" font-size="14.00">Handlers</text>
</a>
</g>
</g>
<!-- Handlers&#45;&gt;MatrixLayouts -->
<g id="edge23" class="edge">
<title>Handlers&#45;&gt;MatrixLayouts</title>
<path fill="none" stroke="black" d="M331.2,-221.14C323.94,-213.69 313.33,-202.82 304.42,-193.68"/>
<polygon fill="black" stroke="black" points="307.1,-191.42 297.62,-186.7 302.09,-196.3 307.1,-191.42"/>
</g>
<!-- Documentation&#45;&gt;MatrixLayouts -->
<g id="edge24" class="edge">
<title>Documentation&#45;&gt;MatrixLayouts</title>
<path fill="none" stroke="black" d="M428.95,-220.89C401.11,-212.16 358.71,-198.87 327.65,-189.12"/>
<polygon fill="black" stroke="black" points="328.8,-185.82 318.21,-186.16 326.7,-192.49 328.8,-185.82"/>
</g>
<!-- Documentation&#45;&gt;Permute -->
<g id="edge18" class="edge">
<title>Documentation&#45;&gt;Permute</title>
<path fill="none" stroke="black" d="M460.68,-221.1C464.86,-208.61 473.06,-185.19 481.78,-165.96 485.69,-157.35 490.54,-148.11 494.86,-140.27"/>
<polygon fill="black" stroke="black" points="497.85,-142.1 499.71,-131.67 491.75,-138.67 497.85,-142.1"/>
</g>
</g>
</svg>
