<?xml version="1.0" encoding="UTF-8" standalone="no"?>
<!DOCTYPE svg PUBLIC "-//W3C//DTD SVG 1.1//EN"
 "http://www.w3.org/Graphics/SVG/1.1/DTD/svg11.dtd">
<!-- Generated by graphviz version 14.1.1 (20251213.1925)
 -->
<!-- Pages: 1 -->
<svg width="792pt" height="359pt"
 viewBox="0.00 0.00 792.00 359.00" xmlns="http://www.w3.org/2000/svg" xmlns:xlink="http://www.w3.org/1999/xlink">
<g id="graph0" class="graph" transform="scale(1 1) rotate(0) translate(4 355.24)">
<polygon fill="white" stroke="none" points="-4,4 -4,-355.24 787.94,-355.24 787.94,4 -4,4"/>
<!-- CachedIsPath -->
<g id="node1" class="node">
<title>CachedIsPath</title>
<g id="a_node1"><a xlink:href="../cached_ispath.html" xlink:title="CachedIsPath" target="_top">
<polygon fill="none" stroke="white" points="216.69,-240.6 127.62,-240.6 127.62,-221.28 216.69,-221.28 216.69,-240.6"/>
<text xml:space="preserve" text-anchor="middle" x="172.16" y="-225.14" font-family="Sans-Serif" font-size="14.00">CachedIsPath</text>
</a>
</g>
</g>
<!-- FlameTime -->
<g id="node2" class="node">
<title>FlameTime</title>
<g id="a_node2"><a xlink:href="../flame_time.html" xlink:title="FlameTime" target="_top">
<polygon fill="none" stroke="white" points="294.82,-295.92 221.5,-295.92 221.5,-276.6 294.82,-276.6 294.82,-295.92"/>
<text xml:space="preserve" text-anchor="middle" x="258.16" y="-280.46" font-family="Sans-Serif" font-size="14.00">FlameTime</text>
</a>
</g>
</g>
<!-- FlameTime&#45;&gt;CachedIsPath -->
<g id="edge1" class="edge">
<title>FlameTime&#45;&gt;CachedIsPath</title>
<path fill="none" stroke="black" d="M243.57,-276.21C230.72,-268.25 211.75,-256.48 196.59,-247.08"/>
<polygon fill="black" stroke="black" points="198.45,-244.12 188.11,-241.83 194.76,-250.07 198.45,-244.12"/>
</g>
<!-- ParallelLoops -->
<g id="node11" class="node">
<title>ParallelLoops</title>
<g id="a_node11"><a xlink:href="../parallel_loops.html" xlink:title="ParallelLoops" target="_top">
<polygon fill="none" stroke="white" points="365.19,-129.96 279.12,-129.96 279.12,-110.64 365.19,-110.64 365.19,-129.96"/>
<text xml:space="preserve" text-anchor="middle" x="322.16" y="-114.5" font-family="Sans-Serif" font-size="14.00">ParallelLoops</text>
</a>
</g>
</g>
<!-- FlameTime&#45;&gt;ParallelLoops -->
<g id="edge4" class="edge">
<title>FlameTime&#45;&gt;ParallelLoops</title>
<path fill="none" stroke="black" d="M266.08,-276.3C273.31,-267.69 283.8,-254.05 290.16,-240.6 305.71,-207.74 314.7,-166.08 319,-141.69"/>
<polygon fill="black" stroke="black" points="322.44,-142.29 320.62,-131.86 315.54,-141.15 322.44,-142.29"/>
</g>
<!-- Logger -->
<g id="node14" class="node">
<title>Logger</title>
<g id="a_node14"><a xlink:href="../logger.html" xlink:title="Logger" target="_top">
<polygon fill="none" stroke="white" points="281.32,-240.6 235,-240.6 235,-221.28 281.32,-221.28 281.32,-240.6"/>
<text xml:space="preserve" text-anchor="middle" x="258.16" y="-225.14" font-family="Sans-Serif" font-size="14.00">Logger</text>
</a>
</g>
</g>
<!-- FlameTime&#45;&gt;Logger -->
<g id="edge8" class="edge">
<title>FlameTime&#45;&gt;Logger</title>
<path fill="none" stroke="black" d="M258.16,-276.46C258.16,-269.86 258.16,-260.56 258.16,-252.17"/>
<polygon fill="black" stroke="black" points="261.66,-252.45 258.16,-242.45 254.66,-252.45 261.66,-252.45"/>
</g>
<!-- ReadOnlyArrays -->
<g id="node3" class="node">
<title>ReadOnlyArrays</title>
<g id="a_node3"><a xlink:href="../read_only_arrays.html" xlink:title="ReadOnlyArrays" target="_top">
<polygon fill="none" stroke="white" points="180.19,-185.28 76.12,-185.28 76.12,-165.96 180.19,-165.96 180.19,-185.28"/>
<text xml:space="preserve" text-anchor="middle" x="128.16" y="-169.82" font-family="Sans-Serif" font-size="14.00">ReadOnlyArrays</text>
</a>
</g>
</g>
<!-- MatrixLayouts -->
<g id="node9" class="node">
<title>MatrixLayouts</title>
<g id="a_node9"><a xlink:href="../matrix_layouts.html" xlink:title="MatrixLayouts" target="_top">
<polygon fill="none" stroke="white" points="172.69,-129.96 83.62,-129.96 83.62,-110.64 172.69,-110.64 172.69,-129.96"/>
<text xml:space="preserve" text-anchor="middle" x="128.16" y="-114.5" font-family="Sans-Serif" font-size="14.00">MatrixLayouts</text>
</a>
</g>
</g>
<!-- ReadOnlyArrays&#45;&gt;MatrixLayouts -->
<g id="edge14" class="edge">
<title>ReadOnlyArrays&#45;&gt;MatrixLayouts</title>
<path fill="none" stroke="black" d="M128.16,-165.82C128.16,-159.22 128.16,-149.92 128.16,-141.53"/>
<polygon fill="black" stroke="black" points="131.66,-141.81 128.16,-131.81 124.66,-141.81 131.66,-141.81"/>
</g>
<!-- UniqueNames -->
<g id="node4" class="node">
<title>UniqueNames</title>
<g id="a_node4"><a xlink:href="../unique_names.html" xlink:title="UniqueNames" target="_top">
<polygon fill="none" stroke="white" points="466.44,-351.24 375.88,-351.24 375.88,-331.92 466.44,-331.92 466.44,-351.24"/>
<text xml:space="preserve" text-anchor="middle" x="421.16" y="-335.78" font-family="Sans-Serif" font-size="14.00">UniqueNames</text>
</a>
</g>
</g>
<!-- GlobalWeakCache -->
<g id="node5" class="node">
<title>GlobalWeakCache</title>
<g id="a_node5"><a xlink:href="../global_weak_cache.html" xlink:title="GlobalWeakCache" target="_top">
<polygon fill="none" stroke="white" points="601.94,-351.24 484.38,-351.24 484.38,-331.92 601.94,-331.92 601.94,-351.24"/>
<text xml:space="preserve" text-anchor="middle" x="543.16" y="-335.78" font-family="Sans-Serif" font-size="14.00">GlobalWeakCache</text>
</a>
</g>
</g>
<!-- ParallelStorage -->
<g id="node6" class="node">
<title>ParallelStorage</title>
<g id="a_node6"><a xlink:href="../parallel_storage.html" xlink:title="ParallelStorage" target="_top">
<polygon fill="none" stroke="white" points="409.44,-295.92 312.88,-295.92 312.88,-276.6 409.44,-276.6 409.44,-295.92"/>
<text xml:space="preserve" text-anchor="middle" x="361.16" y="-280.46" font-family="Sans-Serif" font-size="14.00">ParallelStorage</text>
</a>
</g>
</g>
<!-- Types -->
<g id="node7" class="node">
<title>Types</title>
<g id="a_node7"><a xlink:href="../types.html" xlink:title="Types" target="_top">
<polygon fill="none" stroke="white" points="357.69,-351.24 316.62,-351.24 316.62,-331.92 357.69,-331.92 357.69,-351.24"/>
<text xml:space="preserve" text-anchor="middle" x="337.16" y="-335.78" font-family="Sans-Serif" font-size="14.00">Types</text>
</a>
</g>
</g>
<!-- Types&#45;&gt;FlameTime -->
<g id="edge11" class="edge">
<title>Types&#45;&gt;FlameTime</title>
<path fill="none" stroke="black" d="M323.76,-331.53C312.07,-323.65 294.86,-312.03 281,-302.68"/>
<polygon fill="black" stroke="black" points="283.13,-299.89 272.88,-297.2 279.21,-305.69 283.13,-299.89"/>
</g>
<!-- Types&#45;&gt;ParallelStorage -->
<g id="edge2" class="edge">
<title>Types&#45;&gt;ParallelStorage</title>
<path fill="none" stroke="black" d="M341.12,-331.78C344.2,-324.95 348.57,-315.23 352.45,-306.61"/>
<polygon fill="black" stroke="black" points="355.58,-308.19 356.49,-297.64 349.19,-305.32 355.58,-308.19"/>
</g>
<!-- MatrixFormats -->
<g id="node8" class="node">
<title>MatrixFormats</title>
<g id="a_node8"><a xlink:href="../matrix_formats.html" xlink:title="MatrixFormats" target="_top">
<polygon fill="none" stroke="white" points="171.19,-74.64 79.12,-74.64 79.12,-55.32 171.19,-55.32 171.19,-74.64"/>
<text xml:space="preserve" text-anchor="middle" x="125.16" y="-59.18" font-family="Sans-Serif" font-size="14.00">MatrixFormats</text>
</a>
</g>
</g>
<!-- KMeans -->
<g id="node13" class="node">
<title>KMeans</title>
<g id="a_node13"><a xlink:href="../kmeans.html" xlink:title="KMeans" target="_top">
<polygon fill="none" stroke="white" points="152.44,-19.32 97.88,-19.32 97.88,0 152.44,0 152.44,-19.32"/>
<text xml:space="preserve" text-anchor="middle" x="125.16" y="-3.86" font-family="Sans-Serif" font-size="14.00">KMeans</text>
</a>
</g>
</g>
<!-- MatrixFormats&#45;&gt;KMeans -->
<g id="edge7" class="edge">
<title>MatrixFormats&#45;&gt;KMeans</title>
<path fill="none" stroke="black" d="M125.16,-55.18C125.16,-48.58 125.16,-39.28 125.16,-30.89"/>
<polygon fill="black" stroke="black" points="128.66,-31.17 125.16,-21.17 121.66,-31.17 128.66,-31.17"/>
</g>
<!-- Downsample -->
<g id="node19" class="node">
<title>Downsample</title>
<g id="a_node19"><a xlink:href="../downsample.html" xlink:title="Downsample" target="_top">
<polygon fill="none" stroke="white" points="309.69,-19.32 226.62,-19.32 226.62,0 309.69,0 309.69,-19.32"/>
<text xml:space="preserve" text-anchor="middle" x="268.16" y="-3.86" font-family="Sans-Serif" font-size="14.00">Downsample</text>
</a>
</g>
</g>
<!-- MatrixFormats&#45;&gt;Downsample -->
<g id="edge15" class="edge">
<title>MatrixFormats&#45;&gt;Downsample</title>
<path fill="none" stroke="black" d="M149.42,-54.93C172.43,-46.36 207.25,-33.37 233.24,-23.68"/>
<polygon fill="black" stroke="black" points="234.22,-27.05 242.36,-20.28 231.77,-20.49 234.22,-27.05"/>
</g>
<!-- MatrixLayouts&#45;&gt;MatrixFormats -->
<g id="edge3" class="edge">
<title>MatrixLayouts&#45;&gt;MatrixFormats</title>
<path fill="none" stroke="black" d="M127.66,-110.5C127.29,-103.9 126.77,-94.6 126.3,-86.21"/>
<polygon fill="black" stroke="black" points="129.81,-86.27 125.75,-76.49 122.82,-86.67 129.81,-86.27"/>
</g>
<!-- ParallelDistances -->
<g id="node12" class="node">
<title>ParallelDistances</title>
<g id="a_node12"><a xlink:href="../parallel_distances.html" xlink:title="ParallelDistances" target="_top">
<polygon fill="none" stroke="white" points="297.44,-74.64 188.88,-74.64 188.88,-55.32 297.44,-55.32 297.44,-74.64"/>
<text xml:space="preserve" text-anchor="middle" x="243.16" y="-59.18" font-family="Sans-Serif" font-size="14.00">ParallelDistances</text>
</a>
</g>
</g>
<!-- MatrixLayouts&#45;&gt;ParallelDistances -->
<g id="edge6" class="edge">
<title>MatrixLayouts&#45;&gt;ParallelDistances</title>
<path fill="none" stroke="black" d="M147.67,-110.25C165.68,-101.91 192.68,-89.38 213.39,-79.78"/>
<polygon fill="black" stroke="black" points="214.58,-83.09 222.18,-75.71 211.64,-76.74 214.58,-83.09"/>
</g>
<!-- CrossValidations -->
<g id="node10" class="node">
<title>CrossValidations</title>
<g id="a_node10"><a xlink:href="../cross_validations.html" xlink:title="CrossValidations" target="_top">
<polygon fill="none" stroke="white" points="725.94,-351.24 620.38,-351.24 620.38,-331.92 725.94,-331.92 725.94,-351.24"/>
<text xml:space="preserve" text-anchor="middle" x="673.16" y="-335.78" font-family="Sans-Serif" font-size="14.00">CrossValidations</text>
</a>
</g>
</g>
<!-- ParallelLoops&#45;&gt;ParallelDistances -->
<g id="edge5" class="edge">
<title>ParallelLoops&#45;&gt;ParallelDistances</title>
<path fill="none" stroke="black" d="M308.76,-110.25C297.07,-102.37 279.86,-90.75 266,-81.4"/>
<polygon fill="black" stroke="black" points="268.13,-78.61 257.88,-75.92 264.21,-84.41 268.13,-78.61"/>
</g>
<!-- ParallelLoops&#45;&gt;Downsample -->
<g id="edge16" class="edge">
<title>ParallelLoops&#45;&gt;Downsample</title>
<path fill="none" stroke="black" d="M321.21,-110.15C319.58,-97.3 315.48,-73.44 306.16,-55.32 301.01,-45.3 293.21,-35.59 286.01,-27.81"/>
<polygon fill="black" stroke="black" points="288.58,-25.43 279.09,-20.72 283.57,-30.32 288.58,-25.43"/>
</g>
<!-- Documentation -->
<g id="node18" class="node">
<title>Documentation</title>
<g id="a_node18"><a xlink:href="../documentation.html" xlink:title="Documentation" target="_top">
<polygon fill="none" stroke="white" points="294.07,-185.28 198.25,-185.28 198.25,-165.96 294.07,-165.96 294.07,-185.28"/>
<text xml:space="preserve" text-anchor="middle" x="246.16" y="-169.82" font-family="Sans-Serif" font-size="14.00">Documentation</text>
</a>
</g>
</g>
<!-- Logger&#45;&gt;Documentation -->
<g id="edge9" class="edge">
<title>Logger&#45;&gt;Documentation</title>
<path fill="none" stroke="black" d="M256.18,-221.14C254.69,-214.54 252.6,-205.24 250.71,-196.85"/>
<polygon fill="black" stroke="black" points="254.13,-196.08 248.52,-187.09 247.3,-197.62 254.13,-196.08"/>
</g>
<!-- Brief -->
<g id="node15" class="node">
<title>Brief</title>
<g id="a_node15"><a xlink:href="../brief.html" xlink:title="Brief" target="_top">
<polygon fill="none" stroke="white" points="274.19,-351.24 242.12,-351.24 242.12,-331.92 274.19,-331.92 274.19,-351.24"/>
<text xml:space="preserve" text-anchor="middle" x="258.16" y="-335.78" font-family="Sans-Serif" font-size="14.00">Brief</text>
</a>
</g>
</g>
<!-- Brief&#45;&gt;FlameTime -->
<g id="edge10" class="edge">
<title>Brief&#45;&gt;FlameTime</title>
<path fill="none" stroke="black" d="M258.16,-331.78C258.16,-325.18 258.16,-315.88 258.16,-307.49"/>
<polygon fill="black" stroke="black" points="261.66,-307.77 258.16,-297.77 254.66,-307.77 261.66,-307.77"/>
</g>
<!-- Locks -->
<g id="node16" class="node">
<title>Locks</title>
<g id="a_node16"><a xlink:href="../locks.html" xlink:title="Locks" target="_top">
<polygon fill="none" stroke="white" points="783.94,-351.24 744.38,-351.24 744.38,-331.92 783.94,-331.92 783.94,-351.24"/>
<text xml:space="preserve" text-anchor="middle" x="764.16" y="-335.78" font-family="Sans-Serif" font-size="14.00">Locks</text>
</a>
</g>
</g>
<!-- Handlers -->
<g id="node17" class="node">
<title>Handlers</title>
<g id="a_node17"><a xlink:href="../handlers.html" xlink:title="Handlers" target="_top">
<polygon fill="none" stroke="white" points="58.32,-185.28 0,-185.28 0,-165.96 58.32,-165.96 58.32,-185.28"/>
<text xml:space="preserve" text-anchor="middle" x="29.16" y="-169.82" font-family="Sans-Serif" font-size="14.00">Handlers</text>
</a>
</g>
</g>
<!-- Handlers&#45;&gt;MatrixLayouts -->
<g id="edge12" class="edge">
<title>Handlers&#45;&gt;MatrixLayouts</title>
<path fill="none" stroke="black" d="M45.95,-165.57C61.17,-157.38 83.86,-145.16 101.54,-135.64"/>
<polygon fill="black" stroke="black" points="102.81,-138.93 109.95,-131.11 99.49,-132.77 102.81,-138.93"/>
</g>
<!-- Documentation&#45;&gt;MatrixLayouts -->
<g id="edge13" class="edge">
<title>Documentation&#45;&gt;MatrixLayouts</title>
<path fill="none" stroke="black" d="M226.14,-165.57C207.67,-157.23 179.95,-144.7 158.71,-135.1"/>
<polygon fill="black" stroke="black" points="160.21,-131.94 149.65,-131.01 157.33,-138.32 160.21,-131.94"/>
</g>
</g>
</svg>
