<?xml version="1.0" encoding="UTF-8" standalone="no"?>
<!DOCTYPE svg PUBLIC "-//W3C//DTD SVG 1.1//EN"
 "http://www.w3.org/Graphics/SVG/1.1/DTD/svg11.dtd">
<!-- Generated by graphviz version 2.40.1 (0)
 -->
<!-- Title: %3 Pages: 1 -->
<svg width="735pt" height="357pt"
 viewBox="0.00 0.00 734.50 357.00" xmlns="http://www.w3.org/2000/svg" xmlns:xlink="http://www.w3.org/1999/xlink">
<g id="graph0" class="graph" transform="scale(1 1) rotate(0) translate(4 353)">
<title>%3</title>
<polygon fill="#ffffff" stroke="transparent" points="-4,4 -4,-353 730.5,-353 730.5,4 -4,4"/>
<!-- BitsLoops -->
<g id="node1" class="node">
<title>BitsLoops</title>
<g id="a_node1"><a xlink:href="../bits_loops.html" xlink:title="BitsLoops" target="_top">
<polygon fill="none" stroke="#ffffff" points="108.5,-349 44.5,-349 44.5,-330 108.5,-330 108.5,-349"/>
<text text-anchor="middle" x="76.5" y="-335.8" font-family="Sans-Serif" font-size="14.00" fill="#000000">BitsLoops</text>
</a>
</g>
</g>
<!-- CrossValidations -->
<g id="node2" class="node">
<title>CrossValidations</title>
<g id="a_node2"><a xlink:href="../cross_validations.html" xlink:title="CrossValidations" target="_top">
<polygon fill="none" stroke="#ffffff" points="232,-349 127,-349 127,-330 232,-330 232,-349"/>
<text text-anchor="middle" x="179.5" y="-335.8" font-family="Sans-Serif" font-size="14.00" fill="#000000">CrossValidations</text>
</a>
</g>
</g>
<!-- ParallelStorage -->
<g id="node3" class="node">
<title>ParallelStorage</title>
<g id="a_node3"><a xlink:href="../parallel_storage.html" xlink:title="ParallelStorage" target="_top">
<polygon fill="none" stroke="#ffffff" points="293.5,-294 197.5,-294 197.5,-275 293.5,-275 293.5,-294"/>
<text text-anchor="middle" x="245.5" y="-280.8" font-family="Sans-Serif" font-size="14.00" fill="#000000">ParallelStorage</text>
</a>
</g>
</g>
<!-- Types -->
<g id="node4" class="node">
<title>Types</title>
<g id="a_node4"><a xlink:href="../types.html" xlink:title="Types" target="_top">
<polygon fill="none" stroke="#ffffff" points="290.5,-349 250.5,-349 250.5,-330 290.5,-330 290.5,-349"/>
<text text-anchor="middle" x="270.5" y="-335.8" font-family="Sans-Serif" font-size="14.00" fill="#000000">Types</text>
</a>
</g>
</g>
<!-- Types&#45;&gt;ParallelStorage -->
<g id="edge1" class="edge">
<title>Types&#45;&gt;ParallelStorage</title>
<path fill="none" stroke="#000000" d="M266.1453,-329.9197C262.8521,-322.6746 258.2228,-312.4903 254.1823,-303.601"/>
<polygon fill="#000000" stroke="#000000" points="257.2975,-301.9962 249.9731,-294.3408 250.9249,-304.8928 257.2975,-301.9962"/>
</g>
<!-- FlameTime -->
<g id="node14" class="node">
<title>FlameTime</title>
<g id="a_node14"><a xlink:href="../flame_time.html" xlink:title="FlameTime" target="_top">
<polygon fill="none" stroke="#ffffff" points="385.5,-294 311.5,-294 311.5,-275 385.5,-275 385.5,-294"/>
<text text-anchor="middle" x="348.5" y="-280.8" font-family="Sans-Serif" font-size="14.00" fill="#000000">FlameTime</text>
</a>
</g>
</g>
<!-- Types&#45;&gt;FlameTime -->
<g id="edge18" class="edge">
<title>Types&#45;&gt;FlameTime</title>
<path fill="none" stroke="#000000" d="M284.0866,-329.9197C295.7589,-321.6893 312.8105,-309.6657 326.4378,-300.0567"/>
<polygon fill="#000000" stroke="#000000" points="328.6518,-302.7782 334.8074,-294.155 324.6179,-297.0574 328.6518,-302.7782"/>
</g>
<!-- MatrixFormats -->
<g id="node5" class="node">
<title>MatrixFormats</title>
<g id="a_node5"><a xlink:href="../matrix_formats.html" xlink:title="MatrixFormats" target="_top">
<polygon fill="none" stroke="#ffffff" points="539.5,-74 447.5,-74 447.5,-55 539.5,-55 539.5,-74"/>
<text text-anchor="middle" x="493.5" y="-60.8" font-family="Sans-Serif" font-size="14.00" fill="#000000">MatrixFormats</text>
</a>
</g>
</g>
<!-- KMeans -->
<g id="node15" class="node">
<title>KMeans</title>
<g id="a_node15"><a xlink:href="../kmeans.html" xlink:title="KMeans" target="_top">
<polygon fill="none" stroke="#ffffff" points="521,-19 466,-19 466,0 521,0 521,-19"/>
<text text-anchor="middle" x="493.5" y="-5.8" font-family="Sans-Serif" font-size="14.00" fill="#000000">KMeans</text>
</a>
</g>
</g>
<!-- MatrixFormats&#45;&gt;KMeans -->
<g id="edge8" class="edge">
<title>MatrixFormats&#45;&gt;KMeans</title>
<path fill="none" stroke="#000000" d="M493.5,-54.9197C493.5,-47.9083 493.5,-38.1442 493.5,-29.4652"/>
<polygon fill="#000000" stroke="#000000" points="497.0001,-29.3408 493.5,-19.3408 490.0001,-29.3409 497.0001,-29.3408"/>
</g>
<!-- Downsample -->
<g id="node21" class="node">
<title>Downsample</title>
<g id="a_node21"><a xlink:href="../downsample.html" xlink:title="Downsample" target="_top">
<polygon fill="none" stroke="#ffffff" points="392,-19 309,-19 309,0 392,0 392,-19"/>
<text text-anchor="middle" x="350.5" y="-5.8" font-family="Sans-Serif" font-size="14.00" fill="#000000">Downsample</text>
</a>
</g>
</g>
<!-- MatrixFormats&#45;&gt;Downsample -->
<g id="edge15" class="edge">
<title>MatrixFormats&#45;&gt;Downsample</title>
<path fill="none" stroke="#000000" d="M468.5913,-54.9197C445.4598,-46.023 410.8049,-32.6942 385.012,-22.7739"/>
<polygon fill="#000000" stroke="#000000" points="386.193,-19.4782 375.6031,-19.155 383.6801,-26.0116 386.193,-19.4782"/>
</g>
<!-- MatrixLayouts -->
<g id="node6" class="node">
<title>MatrixLayouts</title>
<g id="a_node6"><a xlink:href="../matrix_layouts.html" xlink:title="MatrixLayouts" target="_top">
<polygon fill="none" stroke="#ffffff" points="535,-129 446,-129 446,-110 535,-110 535,-129"/>
<text text-anchor="middle" x="490.5" y="-115.8" font-family="Sans-Serif" font-size="14.00" fill="#000000">MatrixLayouts</text>
</a>
</g>
</g>
<!-- MatrixLayouts&#45;&gt;MatrixFormats -->
<g id="edge2" class="edge">
<title>MatrixLayouts&#45;&gt;MatrixFormats</title>
<path fill="none" stroke="#000000" d="M491.0226,-109.9197C491.405,-102.9083 491.9376,-93.1442 492.411,-84.4652"/>
<polygon fill="#000000" stroke="#000000" points="495.9133,-84.5166 492.9632,-74.3408 488.9237,-84.1353 495.9133,-84.5166"/>
</g>
<!-- ParallelDistances -->
<g id="node10" class="node">
<title>ParallelDistances</title>
<g id="a_node10"><a xlink:href="../parallel_distances.html" xlink:title="ParallelDistances" target="_top">
<polygon fill="none" stroke="#ffffff" points="429.5,-74 321.5,-74 321.5,-55 429.5,-55 429.5,-74"/>
<text text-anchor="middle" x="375.5" y="-60.8" font-family="Sans-Serif" font-size="14.00" fill="#000000">ParallelDistances</text>
</a>
</g>
</g>
<!-- MatrixLayouts&#45;&gt;ParallelDistances -->
<g id="edge4" class="edge">
<title>MatrixLayouts&#45;&gt;ParallelDistances</title>
<path fill="none" stroke="#000000" d="M470.4685,-109.9197C452.3579,-101.2581 425.4637,-88.3957 404.9138,-78.5675"/>
<polygon fill="#000000" stroke="#000000" points="406.2192,-75.3122 395.6878,-74.155 403.199,-81.6271 406.2192,-75.3122"/>
</g>
<!-- CachedIsPath -->
<g id="node7" class="node">
<title>CachedIsPath</title>
<g id="a_node7"><a xlink:href="../cached_ispath.html" xlink:title="CachedIsPath" target="_top">
<polygon fill="none" stroke="#ffffff" points="89,-184 0,-184 0,-165 89,-165 89,-184"/>
<text text-anchor="middle" x="44.5" y="-170.8" font-family="Sans-Serif" font-size="14.00" fill="#000000">CachedIsPath</text>
</a>
</g>
</g>
<!-- MostlyReadWriteLocks -->
<g id="node8" class="node">
<title>MostlyReadWriteLocks</title>
<g id="a_node8"><a xlink:href="../mostly_read_write_locks.html" xlink:title="MostlyReadWriteLocks" target="_top">
<polygon fill="none" stroke="#ffffff" points="259,-239 116,-239 116,-220 259,-220 259,-239"/>
<text text-anchor="middle" x="187.5" y="-225.8" font-family="Sans-Serif" font-size="14.00" fill="#000000">MostlyReadWriteLocks</text>
</a>
</g>
</g>
<!-- MostlyReadWriteLocks&#45;&gt;CachedIsPath -->
<g id="edge3" class="edge">
<title>MostlyReadWriteLocks&#45;&gt;CachedIsPath</title>
<path fill="none" stroke="#000000" d="M162.5913,-219.9197C139.4598,-211.023 104.8049,-197.6942 79.012,-187.7739"/>
<polygon fill="#000000" stroke="#000000" points="80.193,-184.4782 69.6031,-184.155 77.6801,-191.0116 80.193,-184.4782"/>
</g>
<!-- ExtendedReadWriteLocks -->
<g id="node20" class="node">
<title>ExtendedReadWriteLocks</title>
<g id="a_node20"><a xlink:href="../extended_read_write_locks.html" xlink:title="ExtendedReadWriteLocks" target="_top">
<polygon fill="none" stroke="#ffffff" points="268,-184 107,-184 107,-165 268,-165 268,-184"/>
<text text-anchor="middle" x="187.5" y="-170.8" font-family="Sans-Serif" font-size="14.00" fill="#000000">ExtendedReadWriteLocks</text>
</a>
</g>
</g>
<!-- MostlyReadWriteLocks&#45;&gt;ExtendedReadWriteLocks -->
<g id="edge13" class="edge">
<title>MostlyReadWriteLocks&#45;&gt;ExtendedReadWriteLocks</title>
<path fill="none" stroke="#000000" d="M187.5,-219.9197C187.5,-212.9083 187.5,-203.1442 187.5,-194.4652"/>
<polygon fill="#000000" stroke="#000000" points="191.0001,-194.3408 187.5,-184.3408 184.0001,-194.3409 191.0001,-194.3408"/>
</g>
<!-- UniqueNames -->
<g id="node9" class="node">
<title>UniqueNames</title>
<g id="a_node9"><a xlink:href="../unique_names.html" xlink:title="UniqueNames" target="_top">
<polygon fill="none" stroke="#ffffff" points="474,-349 383,-349 383,-330 474,-330 474,-349"/>
<text text-anchor="middle" x="428.5" y="-335.8" font-family="Sans-Serif" font-size="14.00" fill="#000000">UniqueNames</text>
</a>
</g>
</g>
<!-- ParallelLoops -->
<g id="node11" class="node">
<title>ParallelLoops</title>
<g id="a_node11"><a xlink:href="../parallel_loops.html" xlink:title="ParallelLoops" target="_top">
<polygon fill="none" stroke="#ffffff" points="339.5,-129 253.5,-129 253.5,-110 339.5,-110 339.5,-129"/>
<text text-anchor="middle" x="296.5" y="-115.8" font-family="Sans-Serif" font-size="14.00" fill="#000000">ParallelLoops</text>
</a>
</g>
</g>
<!-- ParallelLoops&#45;&gt;ParallelDistances -->
<g id="edge5" class="edge">
<title>ParallelLoops&#45;&gt;ParallelDistances</title>
<path fill="none" stroke="#000000" d="M310.2607,-109.9197C322.0827,-101.6893 339.3529,-89.6657 353.1549,-80.0567"/>
<polygon fill="#000000" stroke="#000000" points="355.4247,-82.7412 361.6319,-74.155 351.4251,-76.9963 355.4247,-82.7412"/>
</g>
<!-- ParallelLoops&#45;&gt;Downsample -->
<g id="edge14" class="edge">
<title>ParallelLoops&#45;&gt;Downsample</title>
<path fill="none" stroke="#000000" d="M297.5195,-109.8455C299.1957,-96.8042 303.3132,-73.1086 312.5,-55 317.8082,-44.5367 325.9243,-34.3695 333.2949,-26.3096"/>
<polygon fill="#000000" stroke="#000000" points="335.8906,-28.6596 340.2854,-19.0192 330.838,-23.8148 335.8906,-28.6596"/>
</g>
<!-- Documentation -->
<g id="node12" class="node">
<title>Documentation</title>
<g id="a_node12"><a xlink:href="../documentation.html" xlink:title="Documentation" target="_top">
<polygon fill="none" stroke="#ffffff" points="420.5,-184 324.5,-184 324.5,-165 420.5,-165 420.5,-184"/>
<text text-anchor="middle" x="372.5" y="-170.8" font-family="Sans-Serif" font-size="14.00" fill="#000000">Documentation</text>
</a>
</g>
</g>
<!-- Documentation&#45;&gt;MatrixLayouts -->
<g id="edge12" class="edge">
<title>Documentation&#45;&gt;MatrixLayouts</title>
<path fill="none" stroke="#000000" d="M393.054,-164.9197C411.7212,-156.219 439.4828,-143.2792 460.6047,-133.4343"/>
<polygon fill="#000000" stroke="#000000" points="462.2004,-136.5521 469.7856,-129.155 459.2431,-130.2074 462.2004,-136.5521"/>
</g>
<!-- Logger -->
<g id="node13" class="node">
<title>Logger</title>
<g id="a_node13"><a xlink:href="../logger.html" xlink:title="Logger" target="_top">
<polygon fill="none" stroke="#ffffff" points="372,-239 325,-239 325,-220 372,-220 372,-239"/>
<text text-anchor="middle" x="348.5" y="-225.8" font-family="Sans-Serif" font-size="14.00" fill="#000000">Logger</text>
</a>
</g>
</g>
<!-- Logger&#45;&gt;Documentation -->
<g id="edge6" class="edge">
<title>Logger&#45;&gt;Documentation</title>
<path fill="none" stroke="#000000" d="M352.6805,-219.9197C355.842,-212.6746 360.2861,-202.4903 364.165,-193.601"/>
<polygon fill="#000000" stroke="#000000" points="367.4142,-194.9061 368.2058,-184.3408 360.9984,-192.1064 367.4142,-194.9061"/>
</g>
<!-- FlameTime&#45;&gt;MostlyReadWriteLocks -->
<g id="edge7" class="edge">
<title>FlameTime&#45;&gt;MostlyReadWriteLocks</title>
<path fill="none" stroke="#000000" d="M320.4559,-274.9197C294.1027,-265.9171 254.4648,-252.3762 225.3233,-242.421"/>
<polygon fill="#000000" stroke="#000000" points="226.0869,-238.9833 215.4923,-239.0626 223.8239,-245.6075 226.0869,-238.9833"/>
</g>
<!-- FlameTime&#45;&gt;ParallelLoops -->
<g id="edge9" class="edge">
<title>FlameTime&#45;&gt;ParallelLoops</title>
<path fill="none" stroke="#000000" d="M339.3958,-274.8586C331.7443,-266.1751 321.1745,-252.7041 315.5,-239 301.7627,-205.8243 297.8995,-163.6761 296.849,-139.3274"/>
<polygon fill="#000000" stroke="#000000" points="300.3434,-139.0907 296.5335,-129.2047 293.3468,-139.3089 300.3434,-139.0907"/>
</g>
<!-- FlameTime&#45;&gt;Logger -->
<g id="edge16" class="edge">
<title>FlameTime&#45;&gt;Logger</title>
<path fill="none" stroke="#000000" d="M348.5,-274.9197C348.5,-267.9083 348.5,-258.1442 348.5,-249.4652"/>
<polygon fill="#000000" stroke="#000000" points="352.0001,-249.3408 348.5,-239.3408 345.0001,-249.3409 352.0001,-249.3408"/>
</g>
<!-- ChiSquared -->
<g id="node22" class="node">
<title>ChiSquared</title>
<g id="a_node22"><a xlink:href="../chi_squared.html" xlink:title="ChiSquared" target="_top">
<polygon fill="none" stroke="#ffffff" points="466.5,-239 390.5,-239 390.5,-220 466.5,-220 466.5,-239"/>
<text text-anchor="middle" x="428.5" y="-225.8" font-family="Sans-Serif" font-size="14.00" fill="#000000">ChiSquared</text>
</a>
</g>
</g>
<!-- FlameTime&#45;&gt;ChiSquared -->
<g id="edge17" class="edge">
<title>FlameTime&#45;&gt;ChiSquared</title>
<path fill="none" stroke="#000000" d="M362.4349,-274.9197C374.4065,-266.6893 391.8953,-254.6657 405.8721,-245.0567"/>
<polygon fill="#000000" stroke="#000000" points="408.1988,-247.7045 414.4563,-239.155 404.233,-241.9362 408.1988,-247.7045"/>
</g>
<!-- ZeroCorrelation -->
<g id="node24" class="node">
<title>ZeroCorrelation</title>
<g id="a_node24"><a xlink:href="../zero_correlation.html" xlink:title="ZeroCorrelation" target="_top">
<polygon fill="none" stroke="#ffffff" points="582.5,-239 484.5,-239 484.5,-220 582.5,-220 582.5,-239"/>
<text text-anchor="middle" x="533.5" y="-225.8" font-family="Sans-Serif" font-size="14.00" fill="#000000">ZeroCorrelation</text>
</a>
</g>
</g>
<!-- FlameTime&#45;&gt;ZeroCorrelation -->
<g id="edge20" class="edge">
<title>FlameTime&#45;&gt;ZeroCorrelation</title>
<path fill="none" stroke="#000000" d="M380.7245,-274.9197C411.4029,-265.7991 457.7488,-252.0206 491.3482,-242.0316"/>
<polygon fill="#000000" stroke="#000000" points="492.747,-245.2672 501.3349,-239.0626 490.7521,-238.5575 492.747,-245.2672"/>
</g>
<!-- ReadOnlyArrays -->
<g id="node16" class="node">
<title>ReadOnlyArrays</title>
<g id="a_node16"><a xlink:href="../read_only_arrays.html" xlink:title="ReadOnlyArrays" target="_top">
<polygon fill="none" stroke="#ffffff" points="542.5,-184 438.5,-184 438.5,-165 542.5,-165 542.5,-184"/>
<text text-anchor="middle" x="490.5" y="-170.8" font-family="Sans-Serif" font-size="14.00" fill="#000000">ReadOnlyArrays</text>
</a>
</g>
</g>
<!-- ReadOnlyArrays&#45;&gt;MatrixLayouts -->
<g id="edge10" class="edge">
<title>ReadOnlyArrays&#45;&gt;MatrixLayouts</title>
<path fill="none" stroke="#000000" d="M490.5,-164.9197C490.5,-157.9083 490.5,-148.1442 490.5,-139.4652"/>
<polygon fill="#000000" stroke="#000000" points="494.0001,-139.3408 490.5,-129.3408 487.0001,-139.3409 494.0001,-139.3408"/>
</g>
<!-- OldLinuxMmap -->
<g id="node17" class="node">
<title>OldLinuxMmap</title>
<g id="a_node17"><a xlink:href="../old_linux_mmap.html" xlink:title="OldLinuxMmap" target="_top">
<polygon fill="none" stroke="#ffffff" points="590.5,-349 492.5,-349 492.5,-330 590.5,-330 590.5,-349"/>
<text text-anchor="middle" x="541.5" y="-335.8" font-family="Sans-Serif" font-size="14.00" fill="#000000">OldLinuxMmap</text>
</a>
</g>
</g>
<!-- Handlers -->
<g id="node18" class="node">
<title>Handlers</title>
<g id="a_node18"><a xlink:href="../handlers.html" xlink:title="Handlers" target="_top">
<polygon fill="none" stroke="#ffffff" points="620,-184 561,-184 561,-165 620,-165 620,-184"/>
<text text-anchor="middle" x="590.5" y="-170.8" font-family="Sans-Serif" font-size="14.00" fill="#000000">Handlers</text>
</a>
</g>
</g>
<!-- Handlers&#45;&gt;MatrixLayouts -->
<g id="edge11" class="edge">
<title>Handlers&#45;&gt;MatrixLayouts</title>
<path fill="none" stroke="#000000" d="M573.0813,-164.9197C557.6893,-156.4541 535.001,-143.9755 517.2984,-134.2391"/>
<polygon fill="#000000" stroke="#000000" points="518.5035,-130.9075 508.0546,-129.155 515.13,-137.041 518.5035,-130.9075"/>
</g>
<!-- GlobalWeakCache -->
<g id="node19" class="node">
<title>GlobalWeakCache</title>
<g id="a_node19"><a xlink:href="../global_weak_cache.html" xlink:title="GlobalWeakCache" target="_top">
<polygon fill="none" stroke="#ffffff" points="726.5,-349 608.5,-349 608.5,-330 726.5,-330 726.5,-349"/>
<text text-anchor="middle" x="667.5" y="-335.8" font-family="Sans-Serif" font-size="14.00" fill="#000000">GlobalWeakCache</text>
</a>
</g>
</g>
<!-- Brief -->
<g id="node23" class="node">
<title>Brief</title>
<g id="a_node23"><a xlink:href="../brief.html" xlink:title="Brief" target="_top">
<polygon fill="none" stroke="#ffffff" points="364.5,-349 332.5,-349 332.5,-330 364.5,-330 364.5,-349"/>
<text text-anchor="middle" x="348.5" y="-335.8" font-family="Sans-Serif" font-size="14.00" fill="#000000">Brief</text>
</a>
</g>
</g>
<!-- Brief&#45;&gt;FlameTime -->
<g id="edge19" class="edge">
<title>Brief&#45;&gt;FlameTime</title>
<path fill="none" stroke="#000000" d="M348.5,-329.9197C348.5,-322.9083 348.5,-313.1442 348.5,-304.4652"/>
<polygon fill="#000000" stroke="#000000" points="352.0001,-304.3408 348.5,-294.3408 345.0001,-304.3409 352.0001,-304.3408"/>
</g>
</g>
</svg>
