<?xml version="1.0" encoding="UTF-8" standalone="no"?>
<!DOCTYPE svg PUBLIC "-//W3C//DTD SVG 1.1//EN"
 "http://www.w3.org/Graphics/SVG/1.1/DTD/svg11.dtd">
<!-- Generated by graphviz version 12.2.1 (20241206.2353)
 -->
<!-- Pages: 1 -->
<svg width="316pt" height="138pt"
 viewBox="0.00 0.00 316.07 137.96" xmlns="http://www.w3.org/2000/svg" xmlns:xlink="http://www.w3.org/1999/xlink">
<g id="graph0" class="graph" transform="scale(1 1) rotate(0) translate(4 133.96)">
<polygon fill="white" stroke="none" points="-4,4 -4,-133.96 312.07,-133.96 312.07,4 -4,4"/>
<!-- Names -->
<g id="node1" class="node">
<title>Names</title>
<g id="a_node1"><a xlink:href="../names.html" xlink:title="Names" target="_top">
<polygon fill="none" stroke="white" points="47.82,-129.96 0,-129.96 0,-110.64 47.82,-110.64 47.82,-129.96"/>
<text text-anchor="middle" x="23.91" y="-114.5" font-family="Sans-Serif" font-size="14.00">Names</text>
</a>
</g>
</g>
<!-- ParallelStorage -->
<g id="node2" class="node">
<title>ParallelStorage</title>
<g id="a_node2"><a xlink:href="../parallel_storage.html" xlink:title="ParallelStorage" target="_top">
<polygon fill="none" stroke="white" points="117.19,-74.64 20.62,-74.64 20.62,-55.32 117.19,-55.32 117.19,-74.64"/>
<text text-anchor="middle" x="68.91" y="-59.18" font-family="Sans-Serif" font-size="14.00">ParallelStorage</text>
</a>
</g>
</g>
<!-- Types -->
<g id="node3" class="node">
<title>Types</title>
<g id="a_node3"><a xlink:href="../types.html" xlink:title="Types" target="_top">
<polygon fill="none" stroke="white" points="106.44,-129.96 65.38,-129.96 65.38,-110.64 106.44,-110.64 106.44,-129.96"/>
<text text-anchor="middle" x="85.91" y="-114.5" font-family="Sans-Serif" font-size="14.00">Types</text>
</a>
</g>
</g>
<!-- Types&#45;&gt;ParallelStorage -->
<g id="edge1" class="edge">
<title>Types&#45;&gt;ParallelStorage</title>
<path fill="none" stroke="black" d="M83.1,-110.5C80.97,-103.82 77.97,-94.38 75.27,-85.91"/>
<polygon fill="black" stroke="black" points="78.61,-84.88 72.24,-76.42 71.94,-87.01 78.61,-84.88"/>
</g>
<!-- Logger -->
<g id="node4" class="node">
<title>Logger</title>
<g id="a_node4"><a xlink:href="../logger.html" xlink:title="Logger" target="_top">
<polygon fill="none" stroke="white" points="181.07,-74.64 134.75,-74.64 134.75,-55.32 181.07,-55.32 181.07,-74.64"/>
<text text-anchor="middle" x="157.91" y="-59.18" font-family="Sans-Serif" font-size="14.00">Logger</text>
</a>
</g>
</g>
<!-- Types&#45;&gt;Logger -->
<g id="edge2" class="edge">
<title>Types&#45;&gt;Logger</title>
<path fill="none" stroke="black" d="M98.12,-110.25C108.74,-102.39 124.35,-90.84 136.95,-81.5"/>
<polygon fill="black" stroke="black" points="138.71,-84.56 144.66,-75.79 134.54,-78.93 138.71,-84.56"/>
</g>
<!-- Documentation -->
<g id="node8" class="node">
<title>Documentation</title>
<g id="a_node8"><a xlink:href="../documentation.html" xlink:title="Documentation" target="_top">
<polygon fill="none" stroke="white" points="205.82,-19.32 110,-19.32 110,0 205.82,0 205.82,-19.32"/>
<text text-anchor="middle" x="157.91" y="-3.86" font-family="Sans-Serif" font-size="14.00">Documentation</text>
</a>
</g>
</g>
<!-- Logger&#45;&gt;Documentation -->
<g id="edge4" class="edge">
<title>Logger&#45;&gt;Documentation</title>
<path fill="none" stroke="black" d="M157.91,-55.18C157.91,-48.58 157.91,-39.28 157.91,-30.89"/>
<polygon fill="black" stroke="black" points="161.41,-31.17 157.91,-21.17 154.41,-31.17 161.41,-31.17"/>
</g>
<!-- Brief -->
<g id="node5" class="node">
<title>Brief</title>
<g id="a_node5"><a xlink:href="../brief.html" xlink:title="Brief" target="_top">
<polygon fill="none" stroke="white" points="173.94,-129.96 141.88,-129.96 141.88,-110.64 173.94,-110.64 173.94,-129.96"/>
<text text-anchor="middle" x="157.91" y="-114.5" font-family="Sans-Serif" font-size="14.00">Brief</text>
</a>
</g>
</g>
<!-- Brief&#45;&gt;Logger -->
<g id="edge3" class="edge">
<title>Brief&#45;&gt;Logger</title>
<path fill="none" stroke="black" d="M157.91,-110.5C157.91,-103.9 157.91,-94.6 157.91,-86.21"/>
<polygon fill="black" stroke="black" points="161.41,-86.49 157.91,-76.49 154.41,-86.49 161.41,-86.49"/>
</g>
<!-- Locks -->
<g id="node6" class="node">
<title>Locks</title>
<g id="a_node6"><a xlink:href="../locks.html" xlink:title="Locks" target="_top">
<polygon fill="none" stroke="white" points="231.69,-129.96 192.12,-129.96 192.12,-110.64 231.69,-110.64 231.69,-129.96"/>
<text text-anchor="middle" x="211.91" y="-114.5" font-family="Sans-Serif" font-size="14.00">Locks</text>
</a>
</g>
</g>
<!-- Handlers -->
<g id="node7" class="node">
<title>Handlers</title>
<g id="a_node7"><a xlink:href="../handlers.html" xlink:title="Handlers" target="_top">
<polygon fill="none" stroke="white" points="308.07,-129.96 249.75,-129.96 249.75,-110.64 308.07,-110.64 308.07,-129.96"/>
<text text-anchor="middle" x="278.91" y="-114.5" font-family="Sans-Serif" font-size="14.00">Handlers</text>
</a>
</g>
</g>
</g>
</svg>
