<?xml version="1.0" encoding="UTF-8" standalone="no"?>
<!DOCTYPE svg PUBLIC "-//W3C//DTD SVG 1.1//EN"
 "http://www.w3.org/Graphics/SVG/1.1/DTD/svg11.dtd">
<!-- Generated by graphviz version 14.1.1 (20251213.1925)
 -->
<!-- Pages: 1 -->
<svg width="948pt" height="359pt"
 viewBox="0.00 0.00 948.00 359.00" xmlns="http://www.w3.org/2000/svg" xmlns:xlink="http://www.w3.org/1999/xlink">
<g id="graph0" class="graph" transform="scale(1 1) rotate(0) translate(4 355.24)">
<polygon fill="white" stroke="none" points="-4,4 -4,-355.24 943.69,-355.24 943.69,4 -4,4"/>
<!-- ExtendedReadWriteLocks -->
<g id="node1" class="node">
<title>ExtendedReadWriteLocks</title>
<g id="a_node1"><a xlink:href="../extended_read_write_locks.html" xlink:title="ExtendedReadWriteLocks" target="_top">
<polygon fill="none" stroke="white" points="350.07,-185.28 189.75,-185.28 189.75,-165.96 350.07,-165.96 350.07,-185.28"/>
<text xml:space="preserve" text-anchor="middle" x="269.91" y="-169.82" font-family="Sans-Serif" font-size="14.00">ExtendedReadWriteLocks</text>
</a>
</g>
</g>
<!-- MostlyReadWriteLocks -->
<g id="node2" class="node">
<title>MostlyReadWriteLocks</title>
<g id="a_node2"><a xlink:href="../mostly_read_write_locks.html" xlink:title="MostlyReadWriteLocks" target="_top">
<polygon fill="none" stroke="white" points="416.44,-240.6 273.38,-240.6 273.38,-221.28 416.44,-221.28 416.44,-240.6"/>
<text xml:space="preserve" text-anchor="middle" x="344.91" y="-225.14" font-family="Sans-Serif" font-size="14.00">MostlyReadWriteLocks</text>
</a>
</g>
</g>
<!-- MostlyReadWriteLocks&#45;&gt;ExtendedReadWriteLocks -->
<g id="edge1" class="edge">
<title>MostlyReadWriteLocks&#45;&gt;ExtendedReadWriteLocks</title>
<path fill="none" stroke="black" d="M332.19,-220.89C321.2,-213.08 305.07,-201.61 291.98,-192.31"/>
<polygon fill="black" stroke="black" points="294.11,-189.53 283.93,-186.59 290.05,-195.23 294.11,-189.53"/>
</g>
<!-- CachedIsPath -->
<g id="node5" class="node">
<title>CachedIsPath</title>
<g id="a_node5"><a xlink:href="../cached_ispath.html" xlink:title="CachedIsPath" target="_top">
<polygon fill="none" stroke="white" points="457.44,-185.28 368.38,-185.28 368.38,-165.96 457.44,-165.96 457.44,-185.28"/>
<text xml:space="preserve" text-anchor="middle" x="412.91" y="-169.82" font-family="Sans-Serif" font-size="14.00">CachedIsPath</text>
</a>
</g>
</g>
<!-- MostlyReadWriteLocks&#45;&gt;CachedIsPath -->
<g id="edge3" class="edge">
<title>MostlyReadWriteLocks&#45;&gt;CachedIsPath</title>
<path fill="none" stroke="black" d="M356.45,-220.89C366.37,-213.11 380.92,-201.7 392.77,-192.41"/>
<polygon fill="black" stroke="black" points="394.64,-195.39 400.35,-186.47 390.33,-189.88 394.64,-195.39"/>
</g>
<!-- OldLinuxMmap -->
<g id="node3" class="node">
<title>OldLinuxMmap</title>
<g id="a_node3"><a xlink:href="../old_linux_mmap.html" xlink:title="OldLinuxMmap" target="_top">
<polygon fill="none" stroke="white" points="489.57,-351.24 392.25,-351.24 392.25,-331.92 489.57,-331.92 489.57,-351.24"/>
<text xml:space="preserve" text-anchor="middle" x="440.91" y="-335.78" font-family="Sans-Serif" font-size="14.00">OldLinuxMmap</text>
</a>
</g>
</g>
<!-- FlameTime -->
<g id="node4" class="node">
<title>FlameTime</title>
<g id="a_node4"><a xlink:href="../flame_time.html" xlink:title="FlameTime" target="_top">
<polygon fill="none" stroke="white" points="311.57,-295.92 238.25,-295.92 238.25,-276.6 311.57,-276.6 311.57,-295.92"/>
<text xml:space="preserve" text-anchor="middle" x="274.91" y="-280.46" font-family="Sans-Serif" font-size="14.00">FlameTime</text>
</a>
</g>
</g>
<!-- FlameTime&#45;&gt;MostlyReadWriteLocks -->
<g id="edge2" class="edge">
<title>FlameTime&#45;&gt;MostlyReadWriteLocks</title>
<path fill="none" stroke="black" d="M286.78,-276.21C297,-268.43 311.98,-257.02 324.17,-247.73"/>
<polygon fill="black" stroke="black" points="326.17,-250.61 332.01,-241.77 321.93,-245.04 326.17,-250.61"/>
</g>
<!-- ZeroCorrelation -->
<g id="node8" class="node">
<title>ZeroCorrelation</title>
<g id="a_node8"><a xlink:href="../zero_correlation.html" xlink:title="ZeroCorrelation" target="_top">
<polygon fill="none" stroke="white" points="254.94,-240.6 156.87,-240.6 156.87,-221.28 254.94,-221.28 254.94,-240.6"/>
<text xml:space="preserve" text-anchor="middle" x="205.91" y="-225.14" font-family="Sans-Serif" font-size="14.00">ZeroCorrelation</text>
</a>
</g>
</g>
<!-- FlameTime&#45;&gt;ZeroCorrelation -->
<g id="edge4" class="edge">
<title>FlameTime&#45;&gt;ZeroCorrelation</title>
<path fill="none" stroke="black" d="M263.21,-276.21C253.13,-268.43 238.37,-257.02 226.35,-247.73"/>
<polygon fill="black" stroke="black" points="228.69,-245.12 218.64,-241.78 224.41,-250.66 228.69,-245.12"/>
</g>
<!-- ParallelLoops -->
<g id="node16" class="node">
<title>ParallelLoops</title>
<g id="a_node16"><a xlink:href="../parallel_loops.html" xlink:title="ParallelLoops" target="_top">
<polygon fill="none" stroke="white" points="517.94,-129.96 431.88,-129.96 431.88,-110.64 517.94,-110.64 517.94,-129.96"/>
<text xml:space="preserve" text-anchor="middle" x="474.91" y="-114.5" font-family="Sans-Serif" font-size="14.00">ParallelLoops</text>
</a>
</g>
</g>
<!-- FlameTime&#45;&gt;ParallelLoops -->
<g id="edge7" class="edge">
<title>FlameTime&#45;&gt;ParallelLoops</title>
<path fill="none" stroke="black" d="M311.91,-276.11C391.33,-256.12 572.31,-208.44 588.91,-185.28 608.4,-158.08 567.62,-140.99 529.54,-131.38"/>
<polygon fill="black" stroke="black" points="530.41,-127.99 519.87,-129.1 528.8,-134.81 530.41,-127.99"/>
</g>
<!-- Logger -->
<g id="node19" class="node">
<title>Logger</title>
<g id="a_node19"><a xlink:href="../logger.html" xlink:title="Logger" target="_top">
<polygon fill="none" stroke="white" points="105.07,-240.6 58.75,-240.6 58.75,-221.28 105.07,-221.28 105.07,-240.6"/>
<text xml:space="preserve" text-anchor="middle" x="81.91" y="-225.14" font-family="Sans-Serif" font-size="14.00">Logger</text>
</a>
</g>
</g>
<!-- FlameTime&#45;&gt;Logger -->
<g id="edge11" class="edge">
<title>FlameTime&#45;&gt;Logger</title>
<path fill="none" stroke="black" d="M242.17,-276.21C207.14,-266.54 151.81,-251.25 116.2,-241.41"/>
<polygon fill="black" stroke="black" points="117.4,-238.12 106.83,-238.83 115.54,-244.86 117.4,-238.12"/>
</g>
<!-- ReadOnlyArrays -->
<g id="node6" class="node">
<title>ReadOnlyArrays</title>
<g id="a_node6"><a xlink:href="../read_only_arrays.html" xlink:title="ReadOnlyArrays" target="_top">
<polygon fill="none" stroke="white" points="579.94,-185.28 475.88,-185.28 475.88,-165.96 579.94,-165.96 579.94,-185.28"/>
<text xml:space="preserve" text-anchor="middle" x="527.91" y="-169.82" font-family="Sans-Serif" font-size="14.00">ReadOnlyArrays</text>
</a>
</g>
</g>
<!-- MatrixLayouts -->
<g id="node14" class="node">
<title>MatrixLayouts</title>
<g id="a_node14"><a xlink:href="../matrix_layouts.html" xlink:title="MatrixLayouts" target="_top">
<polygon fill="none" stroke="white" points="319.44,-129.96 230.37,-129.96 230.37,-110.64 319.44,-110.64 319.44,-129.96"/>
<text xml:space="preserve" text-anchor="middle" x="274.91" y="-114.5" font-family="Sans-Serif" font-size="14.00">MatrixLayouts</text>
</a>
</g>
</g>
<!-- ReadOnlyArrays&#45;&gt;MatrixLayouts -->
<g id="edge17" class="edge">
<title>ReadOnlyArrays&#45;&gt;MatrixLayouts</title>
<path fill="none" stroke="black" d="M484.71,-165.51C441.81,-156.47 375.91,-142.59 329.44,-132.79"/>
<polygon fill="black" stroke="black" points="330.35,-129.41 319.84,-130.77 328.9,-136.26 330.35,-129.41"/>
</g>
<!-- UniqueNames -->
<g id="node7" class="node">
<title>UniqueNames</title>
<g id="a_node7"><a xlink:href="../unique_names.html" xlink:title="UniqueNames" target="_top">
<polygon fill="none" stroke="white" points="598.19,-351.24 507.62,-351.24 507.62,-331.92 598.19,-331.92 598.19,-351.24"/>
<text xml:space="preserve" text-anchor="middle" x="552.91" y="-335.78" font-family="Sans-Serif" font-size="14.00">UniqueNames</text>
</a>
</g>
</g>
<!-- GlobalWeakCache -->
<g id="node9" class="node">
<title>GlobalWeakCache</title>
<g id="a_node9"><a xlink:href="../global_weak_cache.html" xlink:title="GlobalWeakCache" target="_top">
<polygon fill="none" stroke="white" points="733.69,-351.24 616.12,-351.24 616.12,-331.92 733.69,-331.92 733.69,-351.24"/>
<text xml:space="preserve" text-anchor="middle" x="674.91" y="-335.78" font-family="Sans-Serif" font-size="14.00">GlobalWeakCache</text>
</a>
</g>
</g>
<!-- BitsLoops -->
<g id="node10" class="node">
<title>BitsLoops</title>
<g id="a_node10"><a xlink:href="../bits_loops.html" xlink:title="BitsLoops" target="_top">
<polygon fill="none" stroke="white" points="815.69,-351.24 752.12,-351.24 752.12,-331.92 815.69,-331.92 815.69,-351.24"/>
<text xml:space="preserve" text-anchor="middle" x="783.91" y="-335.78" font-family="Sans-Serif" font-size="14.00">BitsLoops</text>
</a>
</g>
</g>
<!-- ParallelStorage -->
<g id="node11" class="node">
<title>ParallelStorage</title>
<g id="a_node11"><a xlink:href="../parallel_storage.html" xlink:title="ParallelStorage" target="_top">
<polygon fill="none" stroke="white" points="426.19,-295.92 329.62,-295.92 329.62,-276.6 426.19,-276.6 426.19,-295.92"/>
<text xml:space="preserve" text-anchor="middle" x="377.91" y="-280.46" font-family="Sans-Serif" font-size="14.00">ParallelStorage</text>
</a>
</g>
</g>
<!-- Types -->
<g id="node12" class="node">
<title>Types</title>
<g id="a_node12"><a xlink:href="../types.html" xlink:title="Types" target="_top">
<polygon fill="none" stroke="white" points="374.44,-351.24 333.37,-351.24 333.37,-331.92 374.44,-331.92 374.44,-351.24"/>
<text xml:space="preserve" text-anchor="middle" x="353.91" y="-335.78" font-family="Sans-Serif" font-size="14.00">Types</text>
</a>
</g>
</g>
<!-- Types&#45;&gt;FlameTime -->
<g id="edge14" class="edge">
<title>Types&#45;&gt;FlameTime</title>
<path fill="none" stroke="black" d="M340.51,-331.53C328.82,-323.65 311.61,-312.03 297.75,-302.68"/>
<polygon fill="black" stroke="black" points="299.88,-299.89 289.63,-297.2 295.96,-305.69 299.88,-299.89"/>
</g>
<!-- Types&#45;&gt;ParallelStorage -->
<g id="edge5" class="edge">
<title>Types&#45;&gt;ParallelStorage</title>
<path fill="none" stroke="black" d="M357.87,-331.78C360.95,-324.95 365.32,-315.23 369.2,-306.61"/>
<polygon fill="black" stroke="black" points="372.33,-308.19 373.24,-297.64 365.94,-305.32 372.33,-308.19"/>
</g>
<!-- MatrixFormats -->
<g id="node13" class="node">
<title>MatrixFormats</title>
<g id="a_node13"><a xlink:href="../matrix_formats.html" xlink:title="MatrixFormats" target="_top">
<polygon fill="none" stroke="white" points="320.94,-74.64 228.87,-74.64 228.87,-55.32 320.94,-55.32 320.94,-74.64"/>
<text xml:space="preserve" text-anchor="middle" x="274.91" y="-59.18" font-family="Sans-Serif" font-size="14.00">MatrixFormats</text>
</a>
</g>
</g>
<!-- KMeans -->
<g id="node18" class="node">
<title>KMeans</title>
<g id="a_node18"><a xlink:href="../kmeans.html" xlink:title="KMeans" target="_top">
<polygon fill="none" stroke="white" points="302.19,-19.32 247.62,-19.32 247.62,0 302.19,0 302.19,-19.32"/>
<text xml:space="preserve" text-anchor="middle" x="274.91" y="-3.86" font-family="Sans-Serif" font-size="14.00">KMeans</text>
</a>
</g>
</g>
<!-- MatrixFormats&#45;&gt;KMeans -->
<g id="edge10" class="edge">
<title>MatrixFormats&#45;&gt;KMeans</title>
<path fill="none" stroke="black" d="M274.91,-55.18C274.91,-48.58 274.91,-39.28 274.91,-30.89"/>
<polygon fill="black" stroke="black" points="278.41,-31.17 274.91,-21.17 271.41,-31.17 278.41,-31.17"/>
</g>
<!-- Downsample -->
<g id="node23" class="node">
<title>Downsample</title>
<g id="a_node23"><a xlink:href="../downsample.html" xlink:title="Downsample" target="_top">
<polygon fill="none" stroke="white" points="459.44,-19.32 376.38,-19.32 376.38,0 459.44,0 459.44,-19.32"/>
<text xml:space="preserve" text-anchor="middle" x="417.91" y="-3.86" font-family="Sans-Serif" font-size="14.00">Downsample</text>
</a>
</g>
</g>
<!-- MatrixFormats&#45;&gt;Downsample -->
<g id="edge18" class="edge">
<title>MatrixFormats&#45;&gt;Downsample</title>
<path fill="none" stroke="black" d="M299.17,-54.93C322.18,-46.36 357,-33.37 382.99,-23.68"/>
<polygon fill="black" stroke="black" points="383.97,-27.05 392.11,-20.28 381.52,-20.49 383.97,-27.05"/>
</g>
<!-- MatrixLayouts&#45;&gt;MatrixFormats -->
<g id="edge6" class="edge">
<title>MatrixLayouts&#45;&gt;MatrixFormats</title>
<path fill="none" stroke="black" d="M274.91,-110.5C274.91,-103.9 274.91,-94.6 274.91,-86.21"/>
<polygon fill="black" stroke="black" points="278.41,-86.49 274.91,-76.49 271.41,-86.49 278.41,-86.49"/>
</g>
<!-- ParallelDistances -->
<g id="node17" class="node">
<title>ParallelDistances</title>
<g id="a_node17"><a xlink:href="../parallel_distances.html" xlink:title="ParallelDistances" target="_top">
<polygon fill="none" stroke="white" points="447.19,-74.64 338.62,-74.64 338.62,-55.32 447.19,-55.32 447.19,-74.64"/>
<text xml:space="preserve" text-anchor="middle" x="392.91" y="-59.18" font-family="Sans-Serif" font-size="14.00">ParallelDistances</text>
</a>
</g>
</g>
<!-- MatrixLayouts&#45;&gt;ParallelDistances -->
<g id="edge8" class="edge">
<title>MatrixLayouts&#45;&gt;ParallelDistances</title>
<path fill="none" stroke="black" d="M294.93,-110.25C313.4,-101.91 341.12,-89.38 362.36,-79.78"/>
<polygon fill="black" stroke="black" points="363.74,-83 371.42,-75.69 360.86,-76.62 363.74,-83"/>
</g>
<!-- CrossValidations -->
<g id="node15" class="node">
<title>CrossValidations</title>
<g id="a_node15"><a xlink:href="../cross_validations.html" xlink:title="CrossValidations" target="_top">
<polygon fill="none" stroke="white" points="939.69,-351.24 834.12,-351.24 834.12,-331.92 939.69,-331.92 939.69,-351.24"/>
<text xml:space="preserve" text-anchor="middle" x="886.91" y="-335.78" font-family="Sans-Serif" font-size="14.00">CrossValidations</text>
</a>
</g>
</g>
<!-- ParallelLoops&#45;&gt;ParallelDistances -->
<g id="edge9" class="edge">
<title>ParallelLoops&#45;&gt;ParallelDistances</title>
<path fill="none" stroke="black" d="M461,-110.25C448.75,-102.29 430.66,-90.52 416.2,-81.12"/>
<polygon fill="black" stroke="black" points="418.45,-78.41 408.16,-75.89 414.63,-84.28 418.45,-78.41"/>
</g>
<!-- ParallelLoops&#45;&gt;Downsample -->
<g id="edge19" class="edge">
<title>ParallelLoops&#45;&gt;Downsample</title>
<path fill="none" stroke="black" d="M473.43,-110.15C471.09,-97.3 465.74,-73.45 455.91,-55.32 450.54,-45.41 442.71,-35.73 435.55,-27.92"/>
<polygon fill="black" stroke="black" points="438.15,-25.57 428.69,-20.81 433.11,-30.43 438.15,-25.57"/>
</g>
<!-- Documentation -->
<g id="node22" class="node">
<title>Documentation</title>
<g id="a_node22"><a xlink:href="../documentation.html" xlink:title="Documentation" target="_top">
<polygon fill="none" stroke="white" points="95.82,-185.28 0,-185.28 0,-165.96 95.82,-165.96 95.82,-185.28"/>
<text xml:space="preserve" text-anchor="middle" x="47.91" y="-169.82" font-family="Sans-Serif" font-size="14.00">Documentation</text>
</a>
</g>
</g>
<!-- Logger&#45;&gt;Documentation -->
<g id="edge12" class="edge">
<title>Logger&#45;&gt;Documentation</title>
<path fill="none" stroke="black" d="M76.3,-221.14C71.79,-214.08 65.32,-203.93 59.7,-195.1"/>
<polygon fill="black" stroke="black" points="62.79,-193.44 54.46,-186.89 56.89,-197.21 62.79,-193.44"/>
</g>
<!-- Brief -->
<g id="node20" class="node">
<title>Brief</title>
<g id="a_node20"><a xlink:href="../brief.html" xlink:title="Brief" target="_top">
<polygon fill="none" stroke="white" points="290.94,-351.24 258.87,-351.24 258.87,-331.92 290.94,-331.92 290.94,-351.24"/>
<text xml:space="preserve" text-anchor="middle" x="274.91" y="-335.78" font-family="Sans-Serif" font-size="14.00">Brief</text>
</a>
</g>
</g>
<!-- Brief&#45;&gt;FlameTime -->
<g id="edge13" class="edge">
<title>Brief&#45;&gt;FlameTime</title>
<path fill="none" stroke="black" d="M274.91,-331.78C274.91,-325.18 274.91,-315.88 274.91,-307.49"/>
<polygon fill="black" stroke="black" points="278.41,-307.77 274.91,-297.77 271.41,-307.77 278.41,-307.77"/>
</g>
<!-- Handlers -->
<g id="node21" class="node">
<title>Handlers</title>
<g id="a_node21"><a xlink:href="../handlers.html" xlink:title="Handlers" target="_top">
<polygon fill="none" stroke="white" points="172.07,-185.28 113.75,-185.28 113.75,-165.96 172.07,-165.96 172.07,-185.28"/>
<text xml:space="preserve" text-anchor="middle" x="142.91" y="-169.82" font-family="Sans-Serif" font-size="14.00">Handlers</text>
</a>
</g>
</g>
<!-- Handlers&#45;&gt;MatrixLayouts -->
<g id="edge16" class="edge">
<title>Handlers&#45;&gt;MatrixLayouts</title>
<path fill="none" stroke="black" d="M165.3,-165.57C186.35,-157.07 218.11,-144.24 242.03,-134.58"/>
<polygon fill="black" stroke="black" points="243.04,-137.95 251,-130.96 240.42,-131.46 243.04,-137.95"/>
</g>
<!-- Documentation&#45;&gt;MatrixLayouts -->
<g id="edge15" class="edge">
<title>Documentation&#45;&gt;MatrixLayouts</title>
<path fill="none" stroke="black" d="M86.67,-165.51C124.84,-156.55 183.29,-142.82 224.93,-133.04"/>
<polygon fill="black" stroke="black" points="225.52,-136.5 234.45,-130.8 223.92,-129.68 225.52,-136.5"/>
</g>
</g>
</svg>
