<?xml version="1.0" encoding="UTF-8" standalone="no"?>
<!DOCTYPE svg PUBLIC "-//W3C//DTD SVG 1.1//EN"
 "http://www.w3.org/Graphics/SVG/1.1/DTD/svg11.dtd">
<!-- Generated by graphviz version 12.2.1 (20241206.2353)
 -->
<!-- Pages: 1 -->
<svg width="436pt" height="249pt"
 viewBox="0.00 0.00 435.82 248.60" xmlns="http://www.w3.org/2000/svg" xmlns:xlink="http://www.w3.org/1999/xlink">
<g id="graph0" class="graph" transform="scale(1 1) rotate(0) translate(4 244.6)">
<polygon fill="white" stroke="none" points="-4,4 -4,-244.6 431.82,-244.6 431.82,4 -4,4"/>
<!-- ReadOnlyArrays -->
<g id="node1" class="node">
<title>ReadOnlyArrays</title>
<g id="a_node1"><a xlink:href="../read_only_arrays.html" xlink:title="ReadOnlyArrays" target="_top">
<polygon fill="none" stroke="white" points="104.07,-129.96 0,-129.96 0,-110.64 104.07,-110.64 104.07,-129.96"/>
<text text-anchor="middle" x="52.03" y="-114.5" font-family="Sans-Serif" font-size="14.00">ReadOnlyArrays</text>
</a>
</g>
</g>
<!-- MatrixLayouts -->
<g id="node6" class="node">
<title>MatrixLayouts</title>
<g id="a_node6"><a xlink:href="../matrix_layouts.html" xlink:title="MatrixLayouts" target="_top">
<polygon fill="none" stroke="white" points="195.57,-74.64 106.5,-74.64 106.5,-55.32 195.57,-55.32 195.57,-74.64"/>
<text text-anchor="middle" x="151.03" y="-59.18" font-family="Sans-Serif" font-size="14.00">MatrixLayouts</text>
</a>
</g>
</g>
<!-- ReadOnlyArrays&#45;&gt;MatrixLayouts -->
<g id="edge8" class="edge">
<title>ReadOnlyArrays&#45;&gt;MatrixLayouts</title>
<path fill="none" stroke="black" d="M68.83,-110.25C84.05,-102.06 106.73,-89.84 124.42,-80.32"/>
<polygon fill="black" stroke="black" points="125.68,-83.61 132.83,-75.79 122.36,-77.45 125.68,-83.61"/>
</g>
<!-- UniqueNames -->
<g id="node2" class="node">
<title>UniqueNames</title>
<g id="a_node2"><a xlink:href="../unique_names.html" xlink:title="UniqueNames" target="_top">
<polygon fill="none" stroke="white" points="370.32,-240.6 279.75,-240.6 279.75,-221.28 370.32,-221.28 370.32,-240.6"/>
<text text-anchor="middle" x="325.03" y="-225.14" font-family="Sans-Serif" font-size="14.00">UniqueNames</text>
</a>
</g>
</g>
<!-- ParallelStorage -->
<g id="node3" class="node">
<title>ParallelStorage</title>
<g id="a_node3"><a xlink:href="../parallel_storage.html" xlink:title="ParallelStorage" target="_top">
<polygon fill="none" stroke="white" points="107.32,-185.28 10.75,-185.28 10.75,-165.96 107.32,-165.96 107.32,-185.28"/>
<text text-anchor="middle" x="59.03" y="-169.82" font-family="Sans-Serif" font-size="14.00">ParallelStorage</text>
</a>
</g>
</g>
<!-- Types -->
<g id="node4" class="node">
<title>Types</title>
<g id="a_node4"><a xlink:href="../types.html" xlink:title="Types" target="_top">
<polygon fill="none" stroke="white" points="185.57,-240.6 144.5,-240.6 144.5,-221.28 185.57,-221.28 185.57,-240.6"/>
<text text-anchor="middle" x="165.03" y="-225.14" font-family="Sans-Serif" font-size="14.00">Types</text>
</a>
</g>
</g>
<!-- Types&#45;&gt;ParallelStorage -->
<g id="edge1" class="edge">
<title>Types&#45;&gt;ParallelStorage</title>
<path fill="none" stroke="black" d="M147.05,-220.89C130.68,-212.66 106.25,-200.37 87.27,-190.82"/>
<polygon fill="black" stroke="black" points="88.96,-187.76 78.46,-186.39 85.82,-194.01 88.96,-187.76"/>
</g>
<!-- Logger -->
<g id="node7" class="node">
<title>Logger</title>
<g id="a_node7"><a xlink:href="../logger.html" xlink:title="Logger" target="_top">
<polygon fill="none" stroke="white" points="269.19,-185.28 222.88,-185.28 222.88,-165.96 269.19,-165.96 269.19,-185.28"/>
<text text-anchor="middle" x="246.03" y="-169.82" font-family="Sans-Serif" font-size="14.00">Logger</text>
</a>
</g>
</g>
<!-- Types&#45;&gt;Logger -->
<g id="edge4" class="edge">
<title>Types&#45;&gt;Logger</title>
<path fill="none" stroke="black" d="M178.78,-220.89C190.76,-213.01 208.41,-201.39 222.62,-192.04"/>
<polygon fill="black" stroke="black" points="224.53,-194.96 230.96,-186.54 220.69,-189.12 224.53,-194.96"/>
</g>
<!-- ParallelRNG -->
<g id="node9" class="node">
<title>ParallelRNG</title>
<g id="a_node9"><a xlink:href="../parallel_rng.html" xlink:title="ParallelRNG" target="_top">
<polygon fill="none" stroke="white" points="205.07,-185.28 125,-185.28 125,-165.96 205.07,-165.96 205.07,-185.28"/>
<text text-anchor="middle" x="165.03" y="-169.82" font-family="Sans-Serif" font-size="14.00">ParallelRNG</text>
</a>
</g>
</g>
<!-- Types&#45;&gt;ParallelRNG -->
<g id="edge5" class="edge">
<title>Types&#45;&gt;ParallelRNG</title>
<path fill="none" stroke="black" d="M165.03,-221.14C165.03,-214.54 165.03,-205.24 165.03,-196.85"/>
<polygon fill="black" stroke="black" points="168.54,-197.13 165.04,-187.13 161.54,-197.13 168.54,-197.13"/>
</g>
<!-- MatrixFormats -->
<g id="node5" class="node">
<title>MatrixFormats</title>
<g id="a_node5"><a xlink:href="../matrix_formats.html" xlink:title="MatrixFormats" target="_top">
<polygon fill="none" stroke="white" points="197.07,-19.32 105,-19.32 105,0 197.07,0 197.07,-19.32"/>
<text text-anchor="middle" x="151.03" y="-3.86" font-family="Sans-Serif" font-size="14.00">MatrixFormats</text>
</a>
</g>
</g>
<!-- MatrixLayouts&#45;&gt;MatrixFormats -->
<g id="edge2" class="edge">
<title>MatrixLayouts&#45;&gt;MatrixFormats</title>
<path fill="none" stroke="black" d="M151.03,-55.18C151.03,-48.58 151.03,-39.28 151.03,-30.89"/>
<polygon fill="black" stroke="black" points="154.54,-31.17 151.04,-21.17 147.54,-31.17 154.54,-31.17"/>
</g>
<!-- Documentation -->
<g id="node12" class="node">
<title>Documentation</title>
<g id="a_node12"><a xlink:href="../documentation.html" xlink:title="Documentation" target="_top">
<polygon fill="none" stroke="white" points="293.94,-129.96 198.12,-129.96 198.12,-110.64 293.94,-110.64 293.94,-129.96"/>
<text text-anchor="middle" x="246.03" y="-114.5" font-family="Sans-Serif" font-size="14.00">Documentation</text>
</a>
</g>
</g>
<!-- Logger&#45;&gt;Documentation -->
<g id="edge6" class="edge">
<title>Logger&#45;&gt;Documentation</title>
<path fill="none" stroke="black" d="M246.03,-165.82C246.03,-159.22 246.03,-149.92 246.03,-141.53"/>
<polygon fill="black" stroke="black" points="249.54,-141.81 246.04,-131.81 242.54,-141.81 249.54,-141.81"/>
</g>
<!-- Brief -->
<g id="node8" class="node">
<title>Brief</title>
<g id="a_node8"><a xlink:href="../brief.html" xlink:title="Brief" target="_top">
<polygon fill="none" stroke="white" points="262.07,-240.6 230,-240.6 230,-221.28 262.07,-221.28 262.07,-240.6"/>
<text text-anchor="middle" x="246.03" y="-225.14" font-family="Sans-Serif" font-size="14.00">Brief</text>
</a>
</g>
</g>
<!-- Brief&#45;&gt;Logger -->
<g id="edge3" class="edge">
<title>Brief&#45;&gt;Logger</title>
<path fill="none" stroke="black" d="M246.03,-221.14C246.03,-214.54 246.03,-205.24 246.03,-196.85"/>
<polygon fill="black" stroke="black" points="249.54,-197.13 246.04,-187.13 242.54,-197.13 249.54,-197.13"/>
</g>
<!-- Locks -->
<g id="node10" class="node">
<title>Locks</title>
<g id="a_node10"><a xlink:href="../locks.html" xlink:title="Locks" target="_top">
<polygon fill="none" stroke="white" points="427.82,-240.6 388.25,-240.6 388.25,-221.28 427.82,-221.28 427.82,-240.6"/>
<text text-anchor="middle" x="408.03" y="-225.14" font-family="Sans-Serif" font-size="14.00">Locks</text>
</a>
</g>
</g>
<!-- Handlers -->
<g id="node11" class="node">
<title>Handlers</title>
<g id="a_node11"><a xlink:href="../handlers.html" xlink:title="Handlers" target="_top">
<polygon fill="none" stroke="white" points="180.19,-129.96 121.88,-129.96 121.88,-110.64 180.19,-110.64 180.19,-129.96"/>
<text text-anchor="middle" x="151.03" y="-114.5" font-family="Sans-Serif" font-size="14.00">Handlers</text>
</a>
</g>
</g>
<!-- Handlers&#45;&gt;MatrixLayouts -->
<g id="edge7" class="edge">
<title>Handlers&#45;&gt;MatrixLayouts</title>
<path fill="none" stroke="black" d="M151.03,-110.5C151.03,-103.9 151.03,-94.6 151.03,-86.21"/>
<polygon fill="black" stroke="black" points="154.54,-86.49 151.04,-76.49 147.54,-86.49 154.54,-86.49"/>
</g>
<!-- Documentation&#45;&gt;MatrixLayouts -->
<g id="edge9" class="edge">
<title>Documentation&#45;&gt;MatrixLayouts</title>
<path fill="none" stroke="black" d="M229.92,-110.25C215.45,-102.14 193.96,-90.07 177.05,-80.58"/>
<polygon fill="black" stroke="black" points="178.98,-77.65 168.55,-75.81 175.56,-83.76 178.98,-77.65"/>
</g>
</g>
</svg>
