<?xml version="1.0" encoding="UTF-8" standalone="no"?>
<!DOCTYPE svg PUBLIC "-//W3C//DTD SVG 1.1//EN"
 "http://www.w3.org/Graphics/SVG/1.1/DTD/svg11.dtd">
<!-- Generated by graphviz version 12.2.1 (20241206.2353)
 -->
<!-- Pages: 1 -->
<svg width="572pt" height="99pt"
 viewBox="0.00 0.00 571.64 99.32" xmlns="http://www.w3.org/2000/svg" xmlns:xlink="http://www.w3.org/1999/xlink">
<g id="graph0" class="graph" transform="scale(1 1) rotate(0) translate(4 95.32)">
<polygon fill="white" stroke="none" points="-4,4 -4,-95.32 567.64,-95.32 567.64,4 -4,4"/>
<!-- GenericStorage -->
<g id="node1" class="node">
<title>GenericStorage</title>
<g id="a_node1"><a xlink:href="../parallel.html" xlink:title="GenericStorage" target="_top">
<polygon fill="none" stroke="white" points="115.27,-19.32 15.7,-19.32 15.7,0 115.27,0 115.27,-19.32"/>
<text text-anchor="middle" x="65.48" y="-3.86" font-family="Sans-Serif" font-size="14.00">GenericStorage</text>
</a>
</g>
</g>
<!-- GenericTypes -->
<g id="node2" class="node">
<title>GenericTypes</title>
<ellipse fill="none" stroke="black" cx="65.48" cy="-73.32" rx="65.48" ry="18"/>
<text text-anchor="middle" x="65.48" y="-67.52" font-family="Sans-Serif" font-size="14.00">GenericTypes</text>
</g>
<!-- GenericTypes&#45;&gt;GenericStorage -->
<g id="edge1" class="edge">
<title>GenericTypes&#45;&gt;GenericStorage</title>
<path fill="none" stroke="black" d="M65.48,-55.14C65.48,-47.66 65.48,-38.83 65.48,-31.01"/>
<polygon fill="black" stroke="black" points="68.98,-31.09 65.48,-21.09 61.98,-31.09 68.98,-31.09"/>
</g>
<!-- Names -->
<g id="node3" class="node">
<title>Names</title>
<g id="a_node3"><a xlink:href="../names.html" xlink:title="Names" target="_top">
<polygon fill="none" stroke="white" points="196.39,-82.98 148.57,-82.98 148.57,-63.66 196.39,-63.66 196.39,-82.98"/>
<text text-anchor="middle" x="172.48" y="-67.52" font-family="Sans-Serif" font-size="14.00">Names</text>
</a>
</g>
</g>
<!-- Types -->
<g id="node4" class="node">
<title>Types</title>
<g id="a_node4"><a xlink:href="../types.html" xlink:title="Types" target="_top">
<polygon fill="none" stroke="white" points="255.02,-82.98 213.95,-82.98 213.95,-63.66 255.02,-63.66 255.02,-82.98"/>
<text text-anchor="middle" x="234.48" y="-67.52" font-family="Sans-Serif" font-size="14.00">Types</text>
</a>
</g>
</g>
<!-- Logger -->
<g id="node5" class="node">
<title>Logger</title>
<g id="a_node5"><a xlink:href="../logger.html" xlink:title="Logger" target="_top">
<polygon fill="none" stroke="white" points="312.64,-19.32 266.32,-19.32 266.32,0 312.64,0 312.64,-19.32"/>
<text text-anchor="middle" x="289.48" y="-3.86" font-family="Sans-Serif" font-size="14.00">Logger</text>
</a>
</g>
</g>
<!-- Brief -->
<g id="node6" class="node">
<title>Brief</title>
<g id="a_node6"><a xlink:href="../brief.html" xlink:title="Brief" target="_top">
<polygon fill="none" stroke="white" points="305.52,-82.98 273.45,-82.98 273.45,-63.66 305.52,-63.66 305.52,-82.98"/>
<text text-anchor="middle" x="289.48" y="-67.52" font-family="Sans-Serif" font-size="14.00">Brief</text>
</a>
</g>
</g>
<!-- Brief&#45;&gt;Logger -->
<g id="edge2" class="edge">
<title>Brief&#45;&gt;Logger</title>
<path fill="none" stroke="black" d="M289.48,-63.22C289.48,-54.84 289.48,-42.11 289.48,-31.27"/>
<polygon fill="black" stroke="black" points="292.98,-31.31 289.48,-21.31 285.98,-31.31 292.98,-31.31"/>
</g>
<!-- Locks -->
<g id="node7" class="node">
<title>Locks</title>
<g id="a_node7"><a xlink:href="../locks.html" xlink:title="Locks" target="_top">
<polygon fill="none" stroke="white" points="363.27,-82.98 323.7,-82.98 323.7,-63.66 363.27,-63.66 363.27,-82.98"/>
<text text-anchor="middle" x="343.48" y="-67.52" font-family="Sans-Serif" font-size="14.00">Locks</text>
</a>
</g>
</g>
<!-- Handlers -->
<g id="node8" class="node">
<title>Handlers</title>
<g id="a_node8"><a xlink:href="../handlers.html" xlink:title="Handlers" target="_top">
<polygon fill="none" stroke="white" points="439.64,-82.98 381.32,-82.98 381.32,-63.66 439.64,-63.66 439.64,-82.98"/>
<text text-anchor="middle" x="410.48" y="-67.52" font-family="Sans-Serif" font-size="14.00">Handlers</text>
</a>
</g>
</g>
<!-- TanayLabUtilities -->
<g id="node9" class="node">
<title>TanayLabUtilities</title>
<g id="a_node9"><a xlink:href="../TanayLabUtilities.html" xlink:title="TanayLabUtilities" target="_top">
<polygon fill="none" stroke="white" points="563.64,-82.98 457.32,-82.98 457.32,-63.66 563.64,-63.66 563.64,-82.98"/>
<text text-anchor="middle" x="510.48" y="-67.52" font-family="Sans-Serif" font-size="14.00">TanayLabUtilities</text>
</a>
</g>
</g>
</g>
</svg>
