<?xml version="1.0" encoding="UTF-8" standalone="no"?>
<!DOCTYPE svg PUBLIC "-//W3C//DTD SVG 1.1//EN"
 "http://www.w3.org/Graphics/SVG/1.1/DTD/svg11.dtd">
<!-- Generated by graphviz version 12.2.1 (20241206.2353)
 -->
<!-- Pages: 1 -->
<svg width="738pt" height="304pt"
 viewBox="0.00 0.00 738.07 303.92" xmlns="http://www.w3.org/2000/svg" xmlns:xlink="http://www.w3.org/1999/xlink">
<g id="graph0" class="graph" transform="scale(1 1) rotate(0) translate(4 299.92)">
<polygon fill="white" stroke="none" points="-4,4 -4,-299.92 734.07,-299.92 734.07,4 -4,4"/>
<!-- ReadOnlyArrays -->
<g id="node1" class="node">
<title>ReadOnlyArrays</title>
<g id="a_node1"><a xlink:href="../read_only_arrays.html" xlink:title="ReadOnlyArrays" target="_top">
<polygon fill="none" stroke="white" points="256.32,-185.28 152.25,-185.28 152.25,-165.96 256.32,-165.96 256.32,-185.28"/>
<text text-anchor="middle" x="204.28" y="-169.82" font-family="Sans-Serif" font-size="14.00">ReadOnlyArrays</text>
</a>
</g>
</g>
<!-- MatrixLayouts -->
<g id="node7" class="node">
<title>MatrixLayouts</title>
<g id="a_node7"><a xlink:href="../matrix_layouts.html" xlink:title="MatrixLayouts" target="_top">
<polygon fill="none" stroke="white" points="328.82,-129.96 239.75,-129.96 239.75,-110.64 328.82,-110.64 328.82,-129.96"/>
<text text-anchor="middle" x="284.28" y="-114.5" font-family="Sans-Serif" font-size="14.00">MatrixLayouts</text>
</a>
</g>
</g>
<!-- ReadOnlyArrays&#45;&gt;MatrixLayouts -->
<g id="edge8" class="edge">
<title>ReadOnlyArrays&#45;&gt;MatrixLayouts</title>
<path fill="none" stroke="black" d="M217.86,-165.57C229.69,-157.69 247.12,-146.07 261.16,-136.72"/>
<polygon fill="black" stroke="black" points="263.01,-139.69 269.39,-131.23 259.13,-133.86 263.01,-139.69"/>
</g>
<!-- UniqueNames -->
<g id="node2" class="node">
<title>UniqueNames</title>
<g id="a_node2"><a xlink:href="../unique_names.html" xlink:title="UniqueNames" target="_top">
<polygon fill="none" stroke="white" points="412.57,-295.92 322,-295.92 322,-276.6 412.57,-276.6 412.57,-295.92"/>
<text text-anchor="middle" x="367.28" y="-280.46" font-family="Sans-Serif" font-size="14.00">UniqueNames</text>
</a>
</g>
</g>
<!-- GlobalWeakCache -->
<g id="node3" class="node">
<title>GlobalWeakCache</title>
<g id="a_node3"><a xlink:href="../global_weak_cache.html" xlink:title="GlobalWeakCache" target="_top">
<polygon fill="none" stroke="white" points="548.07,-295.92 430.5,-295.92 430.5,-276.6 548.07,-276.6 548.07,-295.92"/>
<text text-anchor="middle" x="489.28" y="-280.46" font-family="Sans-Serif" font-size="14.00">GlobalWeakCache</text>
</a>
</g>
</g>
<!-- ParallelStorage -->
<g id="node4" class="node">
<title>ParallelStorage</title>
<g id="a_node4"><a xlink:href="../parallel_storage.html" xlink:title="ParallelStorage" target="_top">
<polygon fill="none" stroke="white" points="96.57,-240.6 0,-240.6 0,-221.28 96.57,-221.28 96.57,-240.6"/>
<text text-anchor="middle" x="48.28" y="-225.14" font-family="Sans-Serif" font-size="14.00">ParallelStorage</text>
</a>
</g>
</g>
<!-- Types -->
<g id="node5" class="node">
<title>Types</title>
<g id="a_node5"><a xlink:href="../types.html" xlink:title="Types" target="_top">
<polygon fill="none" stroke="white" points="144.82,-295.92 103.75,-295.92 103.75,-276.6 144.82,-276.6 144.82,-295.92"/>
<text text-anchor="middle" x="124.28" y="-280.46" font-family="Sans-Serif" font-size="14.00">Types</text>
</a>
</g>
</g>
<!-- Types&#45;&gt;ParallelStorage -->
<g id="edge1" class="edge">
<title>Types&#45;&gt;ParallelStorage</title>
<path fill="none" stroke="black" d="M111.39,-276.21C100.26,-268.4 83.91,-256.93 70.65,-247.63"/>
<polygon fill="black" stroke="black" points="72.68,-244.78 62.48,-241.9 68.66,-250.51 72.68,-244.78"/>
</g>
<!-- Logger -->
<g id="node9" class="node">
<title>Logger</title>
<g id="a_node9"><a xlink:href="../logger.html" xlink:title="Logger" target="_top">
<polygon fill="none" stroke="white" points="311.44,-240.6 265.12,-240.6 265.12,-221.28 311.44,-221.28 311.44,-240.6"/>
<text text-anchor="middle" x="288.28" y="-225.14" font-family="Sans-Serif" font-size="14.00">Logger</text>
</a>
</g>
</g>
<!-- Types&#45;&gt;Logger -->
<g id="edge3" class="edge">
<title>Types&#45;&gt;Logger</title>
<path fill="none" stroke="black" d="M145.06,-278.51C172.43,-269.61 220.94,-253.83 253.85,-243.14"/>
<polygon fill="black" stroke="black" points="254.91,-246.47 263.33,-240.05 252.74,-239.82 254.91,-246.47"/>
</g>
<!-- ParallelRNG -->
<g id="node11" class="node">
<title>ParallelRNG</title>
<g id="a_node11"><a xlink:href="../parallel_rng.html" xlink:title="ParallelRNG" target="_top">
<polygon fill="none" stroke="white" points="202.32,-129.96 122.25,-129.96 122.25,-110.64 202.32,-110.64 202.32,-129.96"/>
<text text-anchor="middle" x="162.28" y="-114.5" font-family="Sans-Serif" font-size="14.00">ParallelRNG</text>
</a>
</g>
</g>
<!-- Types&#45;&gt;ParallelRNG -->
<g id="edge5" class="edge">
<title>Types&#45;&gt;ParallelRNG</title>
<path fill="none" stroke="black" d="M124.98,-276.12C126.67,-255.91 131.75,-206.07 143.28,-165.96 145.76,-157.36 149.45,-148.22 152.92,-140.46"/>
<polygon fill="black" stroke="black" points="155.96,-142.21 157.04,-131.67 149.62,-139.24 155.96,-142.21"/>
</g>
<!-- MatrixFormats -->
<g id="node6" class="node">
<title>MatrixFormats</title>
<g id="a_node6"><a xlink:href="../matrix_formats.html" xlink:title="MatrixFormats" target="_top">
<polygon fill="none" stroke="white" points="303.32,-74.64 211.25,-74.64 211.25,-55.32 303.32,-55.32 303.32,-74.64"/>
<text text-anchor="middle" x="257.28" y="-59.18" font-family="Sans-Serif" font-size="14.00">MatrixFormats</text>
</a>
</g>
</g>
<!-- Downsample -->
<g id="node15" class="node">
<title>Downsample</title>
<g id="a_node15"><a xlink:href="../downsample.html" xlink:title="Downsample" target="_top">
<polygon fill="none" stroke="white" points="254.82,-19.32 171.75,-19.32 171.75,0 254.82,0 254.82,-19.32"/>
<text text-anchor="middle" x="213.28" y="-3.86" font-family="Sans-Serif" font-size="14.00">Downsample</text>
</a>
</g>
</g>
<!-- MatrixFormats&#45;&gt;Downsample -->
<g id="edge11" class="edge">
<title>MatrixFormats&#45;&gt;Downsample</title>
<path fill="none" stroke="black" d="M250.02,-55.18C244,-47.89 235.27,-37.3 227.83,-28.28"/>
<polygon fill="black" stroke="black" points="230.74,-26.31 221.67,-20.82 225.34,-30.76 230.74,-26.31"/>
</g>
<!-- MatrixLayouts&#45;&gt;MatrixFormats -->
<g id="edge2" class="edge">
<title>MatrixLayouts&#45;&gt;MatrixFormats</title>
<path fill="none" stroke="black" d="M279.83,-110.5C276.33,-103.59 271.34,-93.73 266.94,-85.04"/>
<polygon fill="black" stroke="black" points="270.16,-83.67 262.52,-76.33 263.92,-86.83 270.16,-83.67"/>
</g>
<!-- CrossValidations -->
<g id="node8" class="node">
<title>CrossValidations</title>
<g id="a_node8"><a xlink:href="../cross_validations.html" xlink:title="CrossValidations" target="_top">
<polygon fill="none" stroke="white" points="672.07,-295.92 566.5,-295.92 566.5,-276.6 672.07,-276.6 672.07,-295.92"/>
<text text-anchor="middle" x="619.28" y="-280.46" font-family="Sans-Serif" font-size="14.00">CrossValidations</text>
</a>
</g>
</g>
<!-- Documentation -->
<g id="node14" class="node">
<title>Documentation</title>
<g id="a_node14"><a xlink:href="../documentation.html" xlink:title="Documentation" target="_top">
<polygon fill="none" stroke="white" points="446.19,-185.28 350.38,-185.28 350.38,-165.96 446.19,-165.96 446.19,-185.28"/>
<text text-anchor="middle" x="398.28" y="-169.82" font-family="Sans-Serif" font-size="14.00">Documentation</text>
</a>
</g>
</g>
<!-- Logger&#45;&gt;Documentation -->
<g id="edge6" class="edge">
<title>Logger&#45;&gt;Documentation</title>
<path fill="none" stroke="black" d="M306.95,-220.89C324.01,-212.62 349.53,-200.25 369.26,-190.69"/>
<polygon fill="black" stroke="black" points="370.7,-193.88 378.17,-186.37 367.65,-187.58 370.7,-193.88"/>
</g>
<!-- Brief -->
<g id="node10" class="node">
<title>Brief</title>
<g id="a_node10"><a xlink:href="../brief.html" xlink:title="Brief" target="_top">
<polygon fill="none" stroke="white" points="304.32,-295.92 272.25,-295.92 272.25,-276.6 304.32,-276.6 304.32,-295.92"/>
<text text-anchor="middle" x="288.28" y="-280.46" font-family="Sans-Serif" font-size="14.00">Brief</text>
</a>
</g>
</g>
<!-- Brief&#45;&gt;Logger -->
<g id="edge4" class="edge">
<title>Brief&#45;&gt;Logger</title>
<path fill="none" stroke="black" d="M288.28,-276.46C288.28,-269.86 288.28,-260.56 288.28,-252.17"/>
<polygon fill="black" stroke="black" points="291.79,-252.45 288.29,-242.45 284.79,-252.45 291.79,-252.45"/>
</g>
<!-- ParallelRNG&#45;&gt;Downsample -->
<g id="edge10" class="edge">
<title>ParallelRNG&#45;&gt;Downsample</title>
<path fill="none" stroke="black" d="M166.46,-110.41C174.68,-92.9 193.12,-53.61 204.25,-29.9"/>
<polygon fill="black" stroke="black" points="207.33,-31.58 208.41,-21.04 200.99,-28.61 207.33,-31.58"/>
</g>
<!-- Locks -->
<g id="node12" class="node">
<title>Locks</title>
<g id="a_node12"><a xlink:href="../locks.html" xlink:title="Locks" target="_top">
<polygon fill="none" stroke="white" points="730.07,-295.92 690.5,-295.92 690.5,-276.6 730.07,-276.6 730.07,-295.92"/>
<text text-anchor="middle" x="710.28" y="-280.46" font-family="Sans-Serif" font-size="14.00">Locks</text>
</a>
</g>
</g>
<!-- Handlers -->
<g id="node13" class="node">
<title>Handlers</title>
<g id="a_node13"><a xlink:href="../handlers.html" xlink:title="Handlers" target="_top">
<polygon fill="none" stroke="white" points="332.44,-185.28 274.12,-185.28 274.12,-165.96 332.44,-165.96 332.44,-185.28"/>
<text text-anchor="middle" x="303.28" y="-169.82" font-family="Sans-Serif" font-size="14.00">Handlers</text>
</a>
</g>
</g>
<!-- Handlers&#45;&gt;MatrixLayouts -->
<g id="edge9" class="edge">
<title>Handlers&#45;&gt;MatrixLayouts</title>
<path fill="none" stroke="black" d="M300.15,-165.82C297.74,-159.06 294.33,-149.49 291.28,-140.94"/>
<polygon fill="black" stroke="black" points="294.65,-139.97 288,-131.72 288.06,-142.32 294.65,-139.97"/>
</g>
<!-- Documentation&#45;&gt;MatrixLayouts -->
<g id="edge7" class="edge">
<title>Documentation&#45;&gt;MatrixLayouts</title>
<path fill="none" stroke="black" d="M378.95,-165.57C361.18,-157.26 334.57,-144.82 314.08,-135.24"/>
<polygon fill="black" stroke="black" points="315.63,-132.1 305.09,-131.03 312.66,-138.44 315.63,-132.1"/>
</g>
</g>
</svg>
