<?xml version="1.0" encoding="UTF-8" standalone="no"?>
<!DOCTYPE svg PUBLIC "-//W3C//DTD SVG 1.1//EN"
 "http://www.w3.org/Graphics/SVG/1.1/DTD/svg11.dtd">
<!-- Generated by graphviz version 12.2.1 (20241206.2353)
 -->
<!-- Pages: 1 -->
<svg width="755pt" height="304pt"
 viewBox="0.00 0.00 755.07 303.92" xmlns="http://www.w3.org/2000/svg" xmlns:xlink="http://www.w3.org/1999/xlink">
<g id="graph0" class="graph" transform="scale(1 1) rotate(0) translate(4 299.92)">
<polygon fill="white" stroke="none" points="-4,4 -4,-299.92 751.07,-299.92 751.07,4 -4,4"/>
<!-- EnhancedHclust -->
<g id="node1" class="node">
<title>EnhancedHclust</title>
<g id="a_node1"><a xlink:href="../enhanced_hclust.html" xlink:title="EnhancedHclust" target="_top">
<polygon fill="none" stroke="white" points="102.57,-295.92 0,-295.92 0,-276.6 102.57,-276.6 102.57,-295.92"/>
<text text-anchor="middle" x="51.28" y="-280.46" font-family="Sans-Serif" font-size="14.00">EnhancedHclust</text>
</a>
</g>
</g>
<!-- ReadOnlyArrays -->
<g id="node2" class="node">
<title>ReadOnlyArrays</title>
<g id="a_node2"><a xlink:href="../read_only_arrays.html" xlink:title="ReadOnlyArrays" target="_top">
<polygon fill="none" stroke="white" points="273.32,-185.28 169.25,-185.28 169.25,-165.96 273.32,-165.96 273.32,-185.28"/>
<text text-anchor="middle" x="221.28" y="-169.82" font-family="Sans-Serif" font-size="14.00">ReadOnlyArrays</text>
</a>
</g>
</g>
<!-- MatrixLayouts -->
<g id="node8" class="node">
<title>MatrixLayouts</title>
<g id="a_node8"><a xlink:href="../matrix_layouts.html" xlink:title="MatrixLayouts" target="_top">
<polygon fill="none" stroke="white" points="345.82,-129.96 256.75,-129.96 256.75,-110.64 345.82,-110.64 345.82,-129.96"/>
<text text-anchor="middle" x="301.28" y="-114.5" font-family="Sans-Serif" font-size="14.00">MatrixLayouts</text>
</a>
</g>
</g>
<!-- ReadOnlyArrays&#45;&gt;MatrixLayouts -->
<g id="edge8" class="edge">
<title>ReadOnlyArrays&#45;&gt;MatrixLayouts</title>
<path fill="none" stroke="black" d="M234.86,-165.57C246.69,-157.69 264.12,-146.07 278.16,-136.72"/>
<polygon fill="black" stroke="black" points="280.01,-139.69 286.39,-131.23 276.13,-133.86 280.01,-139.69"/>
</g>
<!-- UniqueNames -->
<g id="node3" class="node">
<title>UniqueNames</title>
<g id="a_node3"><a xlink:href="../unique_names.html" xlink:title="UniqueNames" target="_top">
<polygon fill="none" stroke="white" points="429.57,-295.92 339,-295.92 339,-276.6 429.57,-276.6 429.57,-295.92"/>
<text text-anchor="middle" x="384.28" y="-280.46" font-family="Sans-Serif" font-size="14.00">UniqueNames</text>
</a>
</g>
</g>
<!-- GlobalWeakCache -->
<g id="node4" class="node">
<title>GlobalWeakCache</title>
<g id="a_node4"><a xlink:href="../global_weak_cache.html" xlink:title="GlobalWeakCache" target="_top">
<polygon fill="none" stroke="white" points="565.07,-295.92 447.5,-295.92 447.5,-276.6 565.07,-276.6 565.07,-295.92"/>
<text text-anchor="middle" x="506.28" y="-280.46" font-family="Sans-Serif" font-size="14.00">GlobalWeakCache</text>
</a>
</g>
</g>
<!-- ParallelStorage -->
<g id="node5" class="node">
<title>ParallelStorage</title>
<g id="a_node5"><a xlink:href="../parallel_storage.html" xlink:title="ParallelStorage" target="_top">
<polygon fill="none" stroke="white" points="113.57,-240.6 17,-240.6 17,-221.28 113.57,-221.28 113.57,-240.6"/>
<text text-anchor="middle" x="65.28" y="-225.14" font-family="Sans-Serif" font-size="14.00">ParallelStorage</text>
</a>
</g>
</g>
<!-- Types -->
<g id="node6" class="node">
<title>Types</title>
<g id="a_node6"><a xlink:href="../types.html" xlink:title="Types" target="_top">
<polygon fill="none" stroke="white" points="161.82,-295.92 120.75,-295.92 120.75,-276.6 161.82,-276.6 161.82,-295.92"/>
<text text-anchor="middle" x="141.28" y="-280.46" font-family="Sans-Serif" font-size="14.00">Types</text>
</a>
</g>
</g>
<!-- Types&#45;&gt;ParallelStorage -->
<g id="edge1" class="edge">
<title>Types&#45;&gt;ParallelStorage</title>
<path fill="none" stroke="black" d="M128.39,-276.21C117.26,-268.4 100.91,-256.93 87.65,-247.63"/>
<polygon fill="black" stroke="black" points="89.68,-244.78 79.48,-241.9 85.66,-250.51 89.68,-244.78"/>
</g>
<!-- Logger -->
<g id="node10" class="node">
<title>Logger</title>
<g id="a_node10"><a xlink:href="../logger.html" xlink:title="Logger" target="_top">
<polygon fill="none" stroke="white" points="328.44,-240.6 282.12,-240.6 282.12,-221.28 328.44,-221.28 328.44,-240.6"/>
<text text-anchor="middle" x="305.28" y="-225.14" font-family="Sans-Serif" font-size="14.00">Logger</text>
</a>
</g>
</g>
<!-- Types&#45;&gt;Logger -->
<g id="edge3" class="edge">
<title>Types&#45;&gt;Logger</title>
<path fill="none" stroke="black" d="M162.06,-278.51C189.43,-269.61 237.94,-253.83 270.85,-243.14"/>
<polygon fill="black" stroke="black" points="271.91,-246.47 280.33,-240.05 269.74,-239.82 271.91,-246.47"/>
</g>
<!-- ParallelRNG -->
<g id="node12" class="node">
<title>ParallelRNG</title>
<g id="a_node12"><a xlink:href="../parallel_rng.html" xlink:title="ParallelRNG" target="_top">
<polygon fill="none" stroke="white" points="219.32,-129.96 139.25,-129.96 139.25,-110.64 219.32,-110.64 219.32,-129.96"/>
<text text-anchor="middle" x="179.28" y="-114.5" font-family="Sans-Serif" font-size="14.00">ParallelRNG</text>
</a>
</g>
</g>
<!-- Types&#45;&gt;ParallelRNG -->
<g id="edge5" class="edge">
<title>Types&#45;&gt;ParallelRNG</title>
<path fill="none" stroke="black" d="M141.98,-276.12C143.67,-255.91 148.75,-206.07 160.28,-165.96 162.76,-157.36 166.45,-148.22 169.92,-140.46"/>
<polygon fill="black" stroke="black" points="172.96,-142.21 174.04,-131.67 166.62,-139.24 172.96,-142.21"/>
</g>
<!-- MatrixFormats -->
<g id="node7" class="node">
<title>MatrixFormats</title>
<g id="a_node7"><a xlink:href="../matrix_formats.html" xlink:title="MatrixFormats" target="_top">
<polygon fill="none" stroke="white" points="320.32,-74.64 228.25,-74.64 228.25,-55.32 320.32,-55.32 320.32,-74.64"/>
<text text-anchor="middle" x="274.28" y="-59.18" font-family="Sans-Serif" font-size="14.00">MatrixFormats</text>
</a>
</g>
</g>
<!-- Downsample -->
<g id="node16" class="node">
<title>Downsample</title>
<g id="a_node16"><a xlink:href="../downsample.html" xlink:title="Downsample" target="_top">
<polygon fill="none" stroke="white" points="271.82,-19.32 188.75,-19.32 188.75,0 271.82,0 271.82,-19.32"/>
<text text-anchor="middle" x="230.28" y="-3.86" font-family="Sans-Serif" font-size="14.00">Downsample</text>
</a>
</g>
</g>
<!-- MatrixFormats&#45;&gt;Downsample -->
<g id="edge10" class="edge">
<title>MatrixFormats&#45;&gt;Downsample</title>
<path fill="none" stroke="black" d="M267.02,-55.18C261,-47.89 252.27,-37.3 244.83,-28.28"/>
<polygon fill="black" stroke="black" points="247.74,-26.31 238.67,-20.82 242.34,-30.76 247.74,-26.31"/>
</g>
<!-- MatrixLayouts&#45;&gt;MatrixFormats -->
<g id="edge2" class="edge">
<title>MatrixLayouts&#45;&gt;MatrixFormats</title>
<path fill="none" stroke="black" d="M296.83,-110.5C293.33,-103.59 288.34,-93.73 283.94,-85.04"/>
<polygon fill="black" stroke="black" points="287.16,-83.67 279.52,-76.33 280.92,-86.83 287.16,-83.67"/>
</g>
<!-- CrossValidations -->
<g id="node9" class="node">
<title>CrossValidations</title>
<g id="a_node9"><a xlink:href="../cross_validations.html" xlink:title="CrossValidations" target="_top">
<polygon fill="none" stroke="white" points="689.07,-295.92 583.5,-295.92 583.5,-276.6 689.07,-276.6 689.07,-295.92"/>
<text text-anchor="middle" x="636.28" y="-280.46" font-family="Sans-Serif" font-size="14.00">CrossValidations</text>
</a>
</g>
</g>
<!-- Documentation -->
<g id="node15" class="node">
<title>Documentation</title>
<g id="a_node15"><a xlink:href="../documentation.html" xlink:title="Documentation" target="_top">
<polygon fill="none" stroke="white" points="463.19,-185.28 367.38,-185.28 367.38,-165.96 463.19,-165.96 463.19,-185.28"/>
<text text-anchor="middle" x="415.28" y="-169.82" font-family="Sans-Serif" font-size="14.00">Documentation</text>
</a>
</g>
</g>
<!-- Logger&#45;&gt;Documentation -->
<g id="edge6" class="edge">
<title>Logger&#45;&gt;Documentation</title>
<path fill="none" stroke="black" d="M323.95,-220.89C341.01,-212.62 366.53,-200.25 386.26,-190.69"/>
<polygon fill="black" stroke="black" points="387.7,-193.88 395.17,-186.37 384.65,-187.58 387.7,-193.88"/>
</g>
<!-- Brief -->
<g id="node11" class="node">
<title>Brief</title>
<g id="a_node11"><a xlink:href="../brief.html" xlink:title="Brief" target="_top">
<polygon fill="none" stroke="white" points="321.32,-295.92 289.25,-295.92 289.25,-276.6 321.32,-276.6 321.32,-295.92"/>
<text text-anchor="middle" x="305.28" y="-280.46" font-family="Sans-Serif" font-size="14.00">Brief</text>
</a>
</g>
</g>
<!-- Brief&#45;&gt;Logger -->
<g id="edge4" class="edge">
<title>Brief&#45;&gt;Logger</title>
<path fill="none" stroke="black" d="M305.28,-276.46C305.28,-269.86 305.28,-260.56 305.28,-252.17"/>
<polygon fill="black" stroke="black" points="308.79,-252.45 305.29,-242.45 301.79,-252.45 308.79,-252.45"/>
</g>
<!-- ParallelRNG&#45;&gt;Downsample -->
<g id="edge11" class="edge">
<title>ParallelRNG&#45;&gt;Downsample</title>
<path fill="none" stroke="black" d="M183.46,-110.41C191.68,-92.9 210.12,-53.61 221.25,-29.9"/>
<polygon fill="black" stroke="black" points="224.33,-31.58 225.41,-21.04 217.99,-28.61 224.33,-31.58"/>
</g>
<!-- Locks -->
<g id="node13" class="node">
<title>Locks</title>
<g id="a_node13"><a xlink:href="../locks.html" xlink:title="Locks" target="_top">
<polygon fill="none" stroke="white" points="747.07,-295.92 707.5,-295.92 707.5,-276.6 747.07,-276.6 747.07,-295.92"/>
<text text-anchor="middle" x="727.28" y="-280.46" font-family="Sans-Serif" font-size="14.00">Locks</text>
</a>
</g>
</g>
<!-- Handlers -->
<g id="node14" class="node">
<title>Handlers</title>
<g id="a_node14"><a xlink:href="../handlers.html" xlink:title="Handlers" target="_top">
<polygon fill="none" stroke="white" points="349.44,-185.28 291.12,-185.28 291.12,-165.96 349.44,-165.96 349.44,-185.28"/>
<text text-anchor="middle" x="320.28" y="-169.82" font-family="Sans-Serif" font-size="14.00">Handlers</text>
</a>
</g>
</g>
<!-- Handlers&#45;&gt;MatrixLayouts -->
<g id="edge9" class="edge">
<title>Handlers&#45;&gt;MatrixLayouts</title>
<path fill="none" stroke="black" d="M317.15,-165.82C314.74,-159.06 311.33,-149.49 308.28,-140.94"/>
<polygon fill="black" stroke="black" points="311.65,-139.97 305,-131.72 305.06,-142.32 311.65,-139.97"/>
</g>
<!-- Documentation&#45;&gt;MatrixLayouts -->
<g id="edge7" class="edge">
<title>Documentation&#45;&gt;MatrixLayouts</title>
<path fill="none" stroke="black" d="M395.95,-165.57C378.18,-157.26 351.57,-144.82 331.08,-135.24"/>
<polygon fill="black" stroke="black" points="332.63,-132.1 322.09,-131.03 329.66,-138.44 332.63,-132.1"/>
</g>
</g>
</svg>
