<?xml version="1.0" encoding="UTF-8" standalone="no"?>
<!DOCTYPE svg PUBLIC "-//W3C//DTD SVG 1.1//EN"
 "http://www.w3.org/Graphics/SVG/1.1/DTD/svg11.dtd">
<!-- Generated by graphviz version 14.1.1 (20251213.1925)
 -->
<!-- Pages: 1 -->
<svg width="880pt" height="359pt"
 viewBox="0.00 0.00 880.00 359.00" xmlns="http://www.w3.org/2000/svg" xmlns:xlink="http://www.w3.org/1999/xlink">
<g id="graph0" class="graph" transform="scale(1 1) rotate(0) translate(4 355.24)">
<polygon fill="white" stroke="none" points="-4,4 -4,-355.24 875.57,-355.24 875.57,4 -4,4"/>
<!-- ChiSquared -->
<g id="node1" class="node">
<title>ChiSquared</title>
<g id="a_node1"><a xlink:href="../chi_squared.html" xlink:title="ChiSquared" target="_top">
<polygon fill="none" stroke="white" points="75.57,-240.6 0,-240.6 0,-221.28 75.57,-221.28 75.57,-240.6"/>
<text xml:space="preserve" text-anchor="middle" x="37.78" y="-225.14" font-family="Sans-Serif" font-size="14.00">ChiSquared</text>
</a>
</g>
</g>
<!-- FlameTime -->
<g id="node2" class="node">
<title>FlameTime</title>
<g id="a_node2"><a xlink:href="../flame_time.html" xlink:title="FlameTime" target="_top">
<polygon fill="none" stroke="white" points="243.44,-295.92 170.12,-295.92 170.12,-276.6 243.44,-276.6 243.44,-295.92"/>
<text xml:space="preserve" text-anchor="middle" x="206.78" y="-280.46" font-family="Sans-Serif" font-size="14.00">FlameTime</text>
</a>
</g>
</g>
<!-- FlameTime&#45;&gt;ChiSquared -->
<g id="edge1" class="edge">
<title>FlameTime&#45;&gt;ChiSquared</title>
<path fill="none" stroke="black" d="M178.12,-276.21C150.44,-267.48 108.3,-254.19 77.41,-244.44"/>
<polygon fill="black" stroke="black" points="78.63,-241.16 68.04,-241.48 76.52,-247.83 78.63,-241.16"/>
</g>
<!-- MostlyReadWriteLocks -->
<g id="node4" class="node">
<title>MostlyReadWriteLocks</title>
<g id="a_node4"><a xlink:href="../mostly_read_write_locks.html" xlink:title="MostlyReadWriteLocks" target="_top">
<polygon fill="none" stroke="white" points="417.32,-240.6 274.25,-240.6 274.25,-221.28 417.32,-221.28 417.32,-240.6"/>
<text xml:space="preserve" text-anchor="middle" x="345.78" y="-225.14" font-family="Sans-Serif" font-size="14.00">MostlyReadWriteLocks</text>
</a>
</g>
</g>
<!-- FlameTime&#45;&gt;MostlyReadWriteLocks -->
<g id="edge3" class="edge">
<title>FlameTime&#45;&gt;MostlyReadWriteLocks</title>
<path fill="none" stroke="black" d="M230.36,-276.21C252.63,-267.67 286.28,-254.77 311.51,-245.09"/>
<polygon fill="black" stroke="black" points="312.59,-248.42 320.68,-241.57 310.09,-241.89 312.59,-248.42"/>
</g>
<!-- ZeroCorrelation -->
<g id="node9" class="node">
<title>ZeroCorrelation</title>
<g id="a_node9"><a xlink:href="../zero_correlation.html" xlink:title="ZeroCorrelation" target="_top">
<polygon fill="none" stroke="white" points="255.82,-240.6 157.75,-240.6 157.75,-221.28 255.82,-221.28 255.82,-240.6"/>
<text xml:space="preserve" text-anchor="middle" x="206.78" y="-225.14" font-family="Sans-Serif" font-size="14.00">ZeroCorrelation</text>
</a>
</g>
</g>
<!-- FlameTime&#45;&gt;ZeroCorrelation -->
<g id="edge5" class="edge">
<title>FlameTime&#45;&gt;ZeroCorrelation</title>
<path fill="none" stroke="black" d="M206.78,-276.46C206.78,-269.86 206.78,-260.56 206.78,-252.17"/>
<polygon fill="black" stroke="black" points="210.29,-252.45 206.79,-242.45 203.29,-252.45 210.29,-252.45"/>
</g>
<!-- ParallelLoops -->
<g id="node17" class="node">
<title>ParallelLoops</title>
<g id="a_node17"><a xlink:href="../parallel_loops.html" xlink:title="ParallelLoops" target="_top">
<polygon fill="none" stroke="white" points="518.82,-129.96 432.75,-129.96 432.75,-110.64 518.82,-110.64 518.82,-129.96"/>
<text xml:space="preserve" text-anchor="middle" x="475.78" y="-114.5" font-family="Sans-Serif" font-size="14.00">ParallelLoops</text>
</a>
</g>
</g>
<!-- FlameTime&#45;&gt;ParallelLoops -->
<g id="edge8" class="edge">
<title>FlameTime&#45;&gt;ParallelLoops</title>
<path fill="none" stroke="black" d="M243.68,-278.04C301.66,-266.64 409.34,-245.31 426.78,-240.6 500.64,-220.66 545.22,-247.46 589.78,-185.28 609.28,-158.08 568.5,-140.99 530.41,-131.38"/>
<polygon fill="black" stroke="black" points="531.28,-127.99 520.74,-129.1 529.67,-134.81 531.28,-127.99"/>
</g>
<!-- Logger -->
<g id="node20" class="node">
<title>Logger</title>
<g id="a_node20"><a xlink:href="../logger.html" xlink:title="Logger" target="_top">
<polygon fill="none" stroke="white" points="139.94,-240.6 93.62,-240.6 93.62,-221.28 139.94,-221.28 139.94,-240.6"/>
<text xml:space="preserve" text-anchor="middle" x="116.78" y="-225.14" font-family="Sans-Serif" font-size="14.00">Logger</text>
</a>
</g>
</g>
<!-- FlameTime&#45;&gt;Logger -->
<g id="edge12" class="edge">
<title>FlameTime&#45;&gt;Logger</title>
<path fill="none" stroke="black" d="M191.52,-276.21C177.94,-268.17 157.83,-256.26 141.89,-246.81"/>
<polygon fill="black" stroke="black" points="143.82,-243.89 133.43,-241.8 140.25,-249.91 143.82,-243.89"/>
</g>
<!-- ExtendedReadWriteLocks -->
<g id="node3" class="node">
<title>ExtendedReadWriteLocks</title>
<g id="a_node3"><a xlink:href="../extended_read_write_locks.html" xlink:title="ExtendedReadWriteLocks" target="_top">
<polygon fill="none" stroke="white" points="350.94,-185.28 190.62,-185.28 190.62,-165.96 350.94,-165.96 350.94,-185.28"/>
<text xml:space="preserve" text-anchor="middle" x="270.78" y="-169.82" font-family="Sans-Serif" font-size="14.00">ExtendedReadWriteLocks</text>
</a>
</g>
</g>
<!-- MostlyReadWriteLocks&#45;&gt;ExtendedReadWriteLocks -->
<g id="edge2" class="edge">
<title>MostlyReadWriteLocks&#45;&gt;ExtendedReadWriteLocks</title>
<path fill="none" stroke="black" d="M333.06,-220.89C322.07,-213.08 305.94,-201.61 292.85,-192.31"/>
<polygon fill="black" stroke="black" points="294.98,-189.53 284.8,-186.59 290.93,-195.23 294.98,-189.53"/>
</g>
<!-- CachedIsPath -->
<g id="node6" class="node">
<title>CachedIsPath</title>
<g id="a_node6"><a xlink:href="../cached_ispath.html" xlink:title="CachedIsPath" target="_top">
<polygon fill="none" stroke="white" points="458.32,-185.28 369.25,-185.28 369.25,-165.96 458.32,-165.96 458.32,-185.28"/>
<text xml:space="preserve" text-anchor="middle" x="413.78" y="-169.82" font-family="Sans-Serif" font-size="14.00">CachedIsPath</text>
</a>
</g>
</g>
<!-- MostlyReadWriteLocks&#45;&gt;CachedIsPath -->
<g id="edge4" class="edge">
<title>MostlyReadWriteLocks&#45;&gt;CachedIsPath</title>
<path fill="none" stroke="black" d="M357.32,-220.89C367.25,-213.11 381.8,-201.7 393.64,-192.41"/>
<polygon fill="black" stroke="black" points="395.52,-195.39 401.23,-186.47 391.2,-189.88 395.52,-195.39"/>
</g>
<!-- OldLinuxMmap -->
<g id="node5" class="node">
<title>OldLinuxMmap</title>
<g id="a_node5"><a xlink:href="../old_linux_mmap.html" xlink:title="OldLinuxMmap" target="_top">
<polygon fill="none" stroke="white" points="421.44,-351.24 324.12,-351.24 324.12,-331.92 421.44,-331.92 421.44,-351.24"/>
<text xml:space="preserve" text-anchor="middle" x="372.78" y="-335.78" font-family="Sans-Serif" font-size="14.00">OldLinuxMmap</text>
</a>
</g>
</g>
<!-- ReadOnlyArrays -->
<g id="node7" class="node">
<title>ReadOnlyArrays</title>
<g id="a_node7"><a xlink:href="../read_only_arrays.html" xlink:title="ReadOnlyArrays" target="_top">
<polygon fill="none" stroke="white" points="580.82,-185.28 476.75,-185.28 476.75,-165.96 580.82,-165.96 580.82,-185.28"/>
<text xml:space="preserve" text-anchor="middle" x="528.78" y="-169.82" font-family="Sans-Serif" font-size="14.00">ReadOnlyArrays</text>
</a>
</g>
</g>
<!-- MatrixLayouts -->
<g id="node15" class="node">
<title>MatrixLayouts</title>
<g id="a_node15"><a xlink:href="../matrix_layouts.html" xlink:title="MatrixLayouts" target="_top">
<polygon fill="none" stroke="white" points="320.32,-129.96 231.25,-129.96 231.25,-110.64 320.32,-110.64 320.32,-129.96"/>
<text xml:space="preserve" text-anchor="middle" x="275.78" y="-114.5" font-family="Sans-Serif" font-size="14.00">MatrixLayouts</text>
</a>
</g>
</g>
<!-- ReadOnlyArrays&#45;&gt;MatrixLayouts -->
<g id="edge17" class="edge">
<title>ReadOnlyArrays&#45;&gt;MatrixLayouts</title>
<path fill="none" stroke="black" d="M485.58,-165.51C442.68,-156.47 376.79,-142.59 330.31,-132.79"/>
<polygon fill="black" stroke="black" points="331.22,-129.41 320.72,-130.77 329.78,-136.26 331.22,-129.41"/>
</g>
<!-- UniqueNames -->
<g id="node8" class="node">
<title>UniqueNames</title>
<g id="a_node8"><a xlink:href="../unique_names.html" xlink:title="UniqueNames" target="_top">
<polygon fill="none" stroke="white" points="530.07,-351.24 439.5,-351.24 439.5,-331.92 530.07,-331.92 530.07,-351.24"/>
<text xml:space="preserve" text-anchor="middle" x="484.78" y="-335.78" font-family="Sans-Serif" font-size="14.00">UniqueNames</text>
</a>
</g>
</g>
<!-- GlobalWeakCache -->
<g id="node10" class="node">
<title>GlobalWeakCache</title>
<g id="a_node10"><a xlink:href="../global_weak_cache.html" xlink:title="GlobalWeakCache" target="_top">
<polygon fill="none" stroke="white" points="665.57,-351.24 548,-351.24 548,-331.92 665.57,-331.92 665.57,-351.24"/>
<text xml:space="preserve" text-anchor="middle" x="606.78" y="-335.78" font-family="Sans-Serif" font-size="14.00">GlobalWeakCache</text>
</a>
</g>
</g>
<!-- BitsLoops -->
<g id="node11" class="node">
<title>BitsLoops</title>
<g id="a_node11"><a xlink:href="../bits_loops.html" xlink:title="BitsLoops" target="_top">
<polygon fill="none" stroke="white" points="747.57,-351.24 684,-351.24 684,-331.92 747.57,-331.92 747.57,-351.24"/>
<text xml:space="preserve" text-anchor="middle" x="715.78" y="-335.78" font-family="Sans-Serif" font-size="14.00">BitsLoops</text>
</a>
</g>
</g>
<!-- ParallelStorage -->
<g id="node12" class="node">
<title>ParallelStorage</title>
<g id="a_node12"><a xlink:href="../parallel_storage.html" xlink:title="ParallelStorage" target="_top">
<polygon fill="none" stroke="white" points="358.07,-295.92 261.5,-295.92 261.5,-276.6 358.07,-276.6 358.07,-295.92"/>
<text xml:space="preserve" text-anchor="middle" x="309.78" y="-280.46" font-family="Sans-Serif" font-size="14.00">ParallelStorage</text>
</a>
</g>
</g>
<!-- Types -->
<g id="node13" class="node">
<title>Types</title>
<g id="a_node13"><a xlink:href="../types.html" xlink:title="Types" target="_top">
<polygon fill="none" stroke="white" points="306.32,-351.24 265.25,-351.24 265.25,-331.92 306.32,-331.92 306.32,-351.24"/>
<text xml:space="preserve" text-anchor="middle" x="285.78" y="-335.78" font-family="Sans-Serif" font-size="14.00">Types</text>
</a>
</g>
</g>
<!-- Types&#45;&gt;FlameTime -->
<g id="edge15" class="edge">
<title>Types&#45;&gt;FlameTime</title>
<path fill="none" stroke="black" d="M272.38,-331.53C260.69,-323.65 243.48,-312.03 229.62,-302.68"/>
<polygon fill="black" stroke="black" points="231.75,-299.89 221.51,-297.2 227.84,-305.69 231.75,-299.89"/>
</g>
<!-- Types&#45;&gt;ParallelStorage -->
<g id="edge6" class="edge">
<title>Types&#45;&gt;ParallelStorage</title>
<path fill="none" stroke="black" d="M289.75,-331.78C292.82,-324.95 297.2,-315.23 301.07,-306.61"/>
<polygon fill="black" stroke="black" points="304.2,-308.19 305.11,-297.64 297.82,-305.32 304.2,-308.19"/>
</g>
<!-- MatrixFormats -->
<g id="node14" class="node">
<title>MatrixFormats</title>
<g id="a_node14"><a xlink:href="../matrix_formats.html" xlink:title="MatrixFormats" target="_top">
<polygon fill="none" stroke="white" points="321.82,-74.64 229.75,-74.64 229.75,-55.32 321.82,-55.32 321.82,-74.64"/>
<text xml:space="preserve" text-anchor="middle" x="275.78" y="-59.18" font-family="Sans-Serif" font-size="14.00">MatrixFormats</text>
</a>
</g>
</g>
<!-- KMeans -->
<g id="node19" class="node">
<title>KMeans</title>
<g id="a_node19"><a xlink:href="../kmeans.html" xlink:title="KMeans" target="_top">
<polygon fill="none" stroke="white" points="303.07,-19.32 248.5,-19.32 248.5,0 303.07,0 303.07,-19.32"/>
<text xml:space="preserve" text-anchor="middle" x="275.78" y="-3.86" font-family="Sans-Serif" font-size="14.00">KMeans</text>
</a>
</g>
</g>
<!-- MatrixFormats&#45;&gt;KMeans -->
<g id="edge11" class="edge">
<title>MatrixFormats&#45;&gt;KMeans</title>
<path fill="none" stroke="black" d="M275.78,-55.18C275.78,-48.58 275.78,-39.28 275.78,-30.89"/>
<polygon fill="black" stroke="black" points="279.29,-31.17 275.79,-21.17 272.29,-31.17 279.29,-31.17"/>
</g>
<!-- Downsample -->
<g id="node24" class="node">
<title>Downsample</title>
<g id="a_node24"><a xlink:href="../downsample.html" xlink:title="Downsample" target="_top">
<polygon fill="none" stroke="white" points="460.32,-19.32 377.25,-19.32 377.25,0 460.32,0 460.32,-19.32"/>
<text xml:space="preserve" text-anchor="middle" x="418.78" y="-3.86" font-family="Sans-Serif" font-size="14.00">Downsample</text>
</a>
</g>
</g>
<!-- MatrixFormats&#45;&gt;Downsample -->
<g id="edge19" class="edge">
<title>MatrixFormats&#45;&gt;Downsample</title>
<path fill="none" stroke="black" d="M300.04,-54.93C323.05,-46.36 357.88,-33.37 383.87,-23.68"/>
<polygon fill="black" stroke="black" points="384.84,-27.05 392.99,-20.28 382.4,-20.49 384.84,-27.05"/>
</g>
<!-- MatrixLayouts&#45;&gt;MatrixFormats -->
<g id="edge7" class="edge">
<title>MatrixLayouts&#45;&gt;MatrixFormats</title>
<path fill="none" stroke="black" d="M275.78,-110.5C275.78,-103.9 275.78,-94.6 275.78,-86.21"/>
<polygon fill="black" stroke="black" points="279.29,-86.49 275.79,-76.49 272.29,-86.49 279.29,-86.49"/>
</g>
<!-- ParallelDistances -->
<g id="node18" class="node">
<title>ParallelDistances</title>
<g id="a_node18"><a xlink:href="../parallel_distances.html" xlink:title="ParallelDistances" target="_top">
<polygon fill="none" stroke="white" points="448.07,-74.64 339.5,-74.64 339.5,-55.32 448.07,-55.32 448.07,-74.64"/>
<text xml:space="preserve" text-anchor="middle" x="393.78" y="-59.18" font-family="Sans-Serif" font-size="14.00">ParallelDistances</text>
</a>
</g>
</g>
<!-- MatrixLayouts&#45;&gt;ParallelDistances -->
<g id="edge9" class="edge">
<title>MatrixLayouts&#45;&gt;ParallelDistances</title>
<path fill="none" stroke="black" d="M295.8,-110.25C314.28,-101.91 341.99,-89.38 363.23,-79.78"/>
<polygon fill="black" stroke="black" points="364.62,-83 372.29,-75.69 361.74,-76.62 364.62,-83"/>
</g>
<!-- CrossValidations -->
<g id="node16" class="node">
<title>CrossValidations</title>
<g id="a_node16"><a xlink:href="../cross_validations.html" xlink:title="CrossValidations" target="_top">
<polygon fill="none" stroke="white" points="871.57,-351.24 766,-351.24 766,-331.92 871.57,-331.92 871.57,-351.24"/>
<text xml:space="preserve" text-anchor="middle" x="818.78" y="-335.78" font-family="Sans-Serif" font-size="14.00">CrossValidations</text>
</a>
</g>
</g>
<!-- ParallelLoops&#45;&gt;ParallelDistances -->
<g id="edge10" class="edge">
<title>ParallelLoops&#45;&gt;ParallelDistances</title>
<path fill="none" stroke="black" d="M461.87,-110.25C449.62,-102.29 431.53,-90.52 417.07,-81.12"/>
<polygon fill="black" stroke="black" points="419.32,-78.41 409.03,-75.89 415.51,-84.28 419.32,-78.41"/>
</g>
<!-- ParallelLoops&#45;&gt;Downsample -->
<g id="edge20" class="edge">
<title>ParallelLoops&#45;&gt;Downsample</title>
<path fill="none" stroke="black" d="M474.31,-110.15C471.96,-97.3 466.62,-73.45 456.78,-55.32 451.41,-45.41 443.58,-35.73 436.42,-27.92"/>
<polygon fill="black" stroke="black" points="439.03,-25.57 429.57,-20.81 433.99,-30.43 439.03,-25.57"/>
</g>
<!-- Documentation -->
<g id="node23" class="node">
<title>Documentation</title>
<g id="a_node23"><a xlink:href="../documentation.html" xlink:title="Documentation" target="_top">
<polygon fill="none" stroke="white" points="96.69,-185.28 0.88,-185.28 0.88,-165.96 96.69,-165.96 96.69,-185.28"/>
<text xml:space="preserve" text-anchor="middle" x="48.78" y="-169.82" font-family="Sans-Serif" font-size="14.00">Documentation</text>
</a>
</g>
</g>
<!-- Logger&#45;&gt;Documentation -->
<g id="edge13" class="edge">
<title>Logger&#45;&gt;Documentation</title>
<path fill="none" stroke="black" d="M105.25,-220.89C95.32,-213.11 80.77,-201.7 68.93,-192.41"/>
<polygon fill="black" stroke="black" points="71.37,-189.88 61.34,-186.47 67.05,-195.39 71.37,-189.88"/>
</g>
<!-- Brief -->
<g id="node21" class="node">
<title>Brief</title>
<g id="a_node21"><a xlink:href="../brief.html" xlink:title="Brief" target="_top">
<polygon fill="none" stroke="white" points="222.82,-351.24 190.75,-351.24 190.75,-331.92 222.82,-331.92 222.82,-351.24"/>
<text xml:space="preserve" text-anchor="middle" x="206.78" y="-335.78" font-family="Sans-Serif" font-size="14.00">Brief</text>
</a>
</g>
</g>
<!-- Brief&#45;&gt;FlameTime -->
<g id="edge14" class="edge">
<title>Brief&#45;&gt;FlameTime</title>
<path fill="none" stroke="black" d="M206.78,-331.78C206.78,-325.18 206.78,-315.88 206.78,-307.49"/>
<polygon fill="black" stroke="black" points="210.29,-307.77 206.79,-297.77 203.29,-307.77 210.29,-307.77"/>
</g>
<!-- Handlers -->
<g id="node22" class="node">
<title>Handlers</title>
<g id="a_node22"><a xlink:href="../handlers.html" xlink:title="Handlers" target="_top">
<polygon fill="none" stroke="white" points="172.94,-185.28 114.62,-185.28 114.62,-165.96 172.94,-165.96 172.94,-185.28"/>
<text xml:space="preserve" text-anchor="middle" x="143.78" y="-169.82" font-family="Sans-Serif" font-size="14.00">Handlers</text>
</a>
</g>
</g>
<!-- Handlers&#45;&gt;MatrixLayouts -->
<g id="edge18" class="edge">
<title>Handlers&#45;&gt;MatrixLayouts</title>
<path fill="none" stroke="black" d="M166.18,-165.57C187.23,-157.07 218.99,-144.24 242.91,-134.58"/>
<polygon fill="black" stroke="black" points="243.92,-137.95 251.88,-130.96 241.3,-131.46 243.92,-137.95"/>
</g>
<!-- Documentation&#45;&gt;MatrixLayouts -->
<g id="edge16" class="edge">
<title>Documentation&#45;&gt;MatrixLayouts</title>
<path fill="none" stroke="black" d="M87.55,-165.51C125.71,-156.55 184.17,-142.82 225.8,-133.04"/>
<polygon fill="black" stroke="black" points="226.39,-136.5 235.33,-130.8 224.79,-129.68 226.39,-136.5"/>
</g>
</g>
</svg>
